<?xml version="1.0" encoding="UTF-8" standalone="no"?>
<!-- Generator: Adobe Illustrator 16.0.0, SVG Export Plug-In . SVG Version: 6.00 Build 0)  -->

<svg
   xmlns:dc="http://purl.org/dc/elements/1.1/"
   xmlns:cc="http://creativecommons.org/ns#"
   xmlns:rdf="http://www.w3.org/1999/02/22-rdf-syntax-ns#"
   xmlns:svg="http://www.w3.org/2000/svg"
   xmlns="http://www.w3.org/2000/svg"
   xmlns:sodipodi="http://sodipodi.sourceforge.net/DTD/sodipodi-0.dtd"
   xmlns:inkscape="http://www.inkscape.org/namespaces/inkscape"
   version="1.1"
   id="Calque_1"
   x="0px"
   y="0px"
   width="36.41px"
   height="36.409px"
   viewBox="0 0 36.41 36.409"
   enable-background="new 0 0 36.41 36.409"
   xml:space="preserve"
   sodipodi:docname="touristiccontent-destination.svg"
   inkscape:version="0.92.5 (2060ec1f9f, 2020-04-08)"><metadata
   id="metadata9"><rdf:RDF><cc:Work
       rdf:about=""><dc:format>image/svg+xml</dc:format><dc:type
         rdf:resource="http://purl.org/dc/dcmitype/StillImage" /><dc:title></dc:title></cc:Work></rdf:RDF></metadata><defs
   id="defs7" /><sodipodi:namedview
   pagecolor="#ffffff"
   bordercolor="#666666"
   borderopacity="1"
   objecttolerance="10"
   gridtolerance="10"
   guidetolerance="10"
   inkscape:pageopacity="0"
   inkscape:pageshadow="2"
   inkscape:window-width="1848"
   inkscape:window-height="1016"
   id="namedview5"
   showgrid="false"
   inkscape:pagecheckerboard="true"
   inkscape:zoom="21.724539"
   inkscape:cx="18.205"
   inkscape:cy="18.2045"
   inkscape:window-x="72"
   inkscape:window-y="27"
   inkscape:window-maximized="1"
   inkscape:current-layer="Calque_1" />
<path
   style="fill:#ffffff;stroke-width:1.33960795"
   d="m 27.739237,10.916891 c -0.425125,0.593712 -1.15793,0.985112 -2.058007,1.298427 -0.900077,0.313315 -1.966596,0.548163 -3.057242,0.833002 -1.090645,0.28484 -2.205375,0.618252 -3.202206,1.126537 -0.996831,0.508285 -1.874273,1.192733 -2.492908,2.176385 -0.547725,0.852317 -0.840018,1.661075 -0.937104,2.419673 -0.09709,0.758599 2.28e-4,1.465217 0.225216,2.112917 0.449976,1.295401 1.414708,2.353204 2.381593,3.101944 -0.447325,0.520597 -1.041358,0.838461 -1.682647,1.023403 -0.641291,0.184942 -1.328246,0.235844 -1.959638,0.222134 -1.262783,-0.02741 -2.303932,-0.314689 -2.303932,-0.314689 l 0.396069,2.903608 c 0,0 1.153872,-0.06161 2.549858,-0.486579 0.697993,-0.212487 1.456893,-0.516706 2.161554,-0.949358 0.704663,-0.432654 1.354858,-0.99277 1.837969,-1.721539 1.057013,0.616729 2.397933,1.114162 3.751009,1.028693 0.676539,-0.04273 1.357881,-0.231592 2.006233,-0.624092 0.648354,-0.392501 1.265228,-0.990061 1.81726,-1.848472 0.59544,-0.927801 0.927372,-2.158191 1.092427,-3.485388 0.165055,-1.327198 0.163129,-2.750781 0.08543,-4.056591 -0.155412,-2.611619 -0.610276,-4.758661 -0.610938,-4.760015 z m -0.605754,2.223985 c -0.04615,0.157614 -0.105131,0.311829 -0.155321,0.468068 0,0 0,0.0026 0,0.0026 -0.468474,1.436016 -1.119093,2.783133 -1.830202,3.995772 -0.711495,1.213295 -1.48599,2.29257 -2.200385,3.191853 -1.42879,1.798566 -2.622341,2.877164 -2.622341,2.877164 l -0.828381,-0.724578 c 1.51693,-1.341097 3.184521,-3.289678 4.574212,-5.095861 1.38911,-1.805426 2.501764,-3.467432 2.907097,-4.244345 0,0 0,-0.0026 0,-0.0026 0.05019,-0.156238 0.10916,-0.310453 0.155321,-0.468068 z"
   id="path4524"
   inkscape:connector-curvature="0" />
<g
   transform="matrix(0.27148636,0.01065011,-0.01225664,0.26741401,17.082905,-249.99235)"
   id="layer1"><g
     style="fill:#ffffff;fill-opacity:1;stroke:none"
     transform="matrix(0.05963209,0.03590781,-0.03590781,0.05963209,14.619215,1015.8301)"
     id="g36337"><g
       style="fill:#ffffff;fill-opacity:1;stroke:none"
       id="layer1-7" /><g
       style="fill:#ffffff;fill-opacity:1;stroke:none"
       id="layer2"><path
         inkscape:connector-curvature="0"
         style="fill:#ffffff;fill-opacity:1;stroke:none;stroke-width:1px;stroke-linecap:butt;stroke-linejoin:miter;stroke-opacity:1"
         d="m 99.893953,66.029105 c 0,0 10.076857,-23.385922 25.857607,-33.462783 15.78074,-10.076861 23.00566,-14.830097 31.18123,-14.830097 8.17556,0 23.19579,1.711165 38.40614,12.548544 15.21036,10.837378 21.67476,16.541262 26.61813,24.716828 4.94336,8.175567 7.41505,13.309062 7.03479,14.259709 -0.38026,0.950647 -29.6602,18.062298 -29.6602,18.062298 0,0 -3.2322,1.330906 -3.99272,0.190129 -0.76051,-1.140776 -6.08414,-10.076861 -11.21763,-13.87945 -5.1335,-3.802589 -12.73868,-7.224919 -19.39321,-6.84466 -6.65453,0.380259 -12.54854,0.19013 -18.63268,6.274272 -6.08415,6.084142 -7.60518,7.795307 -7.60518,7.795307 0,0 -1.33091,2.661813 -3.04207,1.901295 C 133.73699,81.999979 100.8446,67.9304 100.8446,67.9304 Z"
         id="path2995" /><path
         inkscape:connector-curvature="0"
         style="fill:#ffffff;fill-opacity:1;stroke:none;stroke-width:1px;stroke-linecap:butt;stroke-linejoin:miter;stroke-opacity:1"
         d="m 100.96581,82.404223 27.42613,11.293113 c 0,0 3.22661,1.344418 2.82328,2.554395 -0.40333,1.209976 -1.74774,2.688836 -2.55439,6.318769 -0.80666,3.62993 -1.88219,7.52874 -1.61331,8.60427 0.26889,1.07554 -0.80665,4.30214 -3.76437,3.49549 -2.95772,-0.80665 -9.81425,-3.09216 -11.42755,-3.09216 -1.6133,0 -9.27649,-1.74775 -10.21758,-1.74775 -0.94109,0 -0.67221,-0.13444 -2.957721,-1.34442 -2.285511,-1.20997 -3.764372,-0.80664 -6.184324,-1.07553 -2.419953,-0.26888 -3.764371,0.13444 -3.898813,-0.80665 -0.134442,-0.94109 0,-3.2266 0.672209,-5.37767 0.672209,-2.151071 4.571022,-16.80523 4.571022,-16.80523 0,0 -0.134442,-2.554395 1.882185,-2.688836 2.016628,-0.134442 5.243232,0.672209 5.243232,0.672209 z"
         id="path3785" /><path
         inkscape:connector-curvature="0"
         style="fill:#ffffff;fill-opacity:1;stroke:none;stroke-width:1px;stroke-linecap:butt;stroke-linejoin:miter;stroke-opacity:1"
         d="m 93.974835,124.21563 c 0,0 18.284085,4.97435 21.376245,5.10879 3.09217,0.13444 5.51212,0.94109 5.51212,0.94109 0,0 2.28551,-0.26888 2.01663,1.20998 -0.26889,1.47886 -1.20998,12.50309 -1.07554,14.92304 0.13444,2.41995 -0.40332,4.43658 -1.88218,4.97435 -1.47886,0.53777 -4.30214,0.80665 -7.66319,0.80665 -3.36104,0 -7.66318,0 -10.21758,-0.13444 -2.554391,-0.13444 -4.571018,-1.07554 -6.990971,-1.47886 -2.419953,-0.40333 -1.882185,-0.80665 -5.780998,-1.20998 -3.898813,-0.40332 -5.243231,0.26888 -6.453208,-0.80665 -1.209976,-1.07553 -2.016627,-0.80665 -1.747743,-3.76437 0.268883,-2.95772 0,-3.89881 0.537767,-6.85653 0.537767,-2.95772 0.941093,-5.37768 1.882185,-8.46984 0.941093,-3.09216 0.403326,-3.89881 1.747744,-5.10879 1.344418,-1.20997 0.268884,-1.74774 2.688837,-1.74774 2.419952,0 3.764371,0.40332 4.705463,0.80665 0.941093,0.40332 1.344419,0.80665 1.344419,0.80665 z"
         id="path3787" /><path
         inkscape:connector-curvature="0"
         style="fill:#ffffff;fill-opacity:1;stroke:none;stroke-width:1px;stroke-linecap:butt;stroke-linejoin:miter;stroke-opacity:1"
         d="m 81.875071,164.68262 39.391449,1.47886 c 0,0 0.40333,12.50309 1.34442,16.4019 0.9411,3.89881 2.15107,5.10879 0.9411,5.781 -1.20998,0.67221 -16.26746,3.49549 -22.31735,4.1677 -6.049879,0.67221 -10.620901,0.40332 -13.309737,0.40332 -2.688837,0 -4.705464,0 -4.705464,0 z"
         id="path3789" /><path
         inkscape:connector-curvature="0"
         style="fill:#ffffff;fill-opacity:1;stroke:none;stroke-width:1px;stroke-linecap:butt;stroke-linejoin:miter;stroke-opacity:1"
         d="m 87.387185,207.97289 39.122575,-6.45321 c 0,0 0.80665,-0.13444 1.47886,0.94109 0.67221,1.07554 6.99097,18.01521 6.99097,18.01521 0,0 0.53777,1.20997 -0.26888,1.47886 -0.80665,0.26888 -38.988132,13.71306 -38.988132,13.71306 0,0 -0.268883,0.26889 -1.209976,-2.41995 -0.941093,-2.68884 -6.990975,-23.12399 -6.990975,-23.12399 z"
         id="path3791" /><path
         inkscape:connector-curvature="0"
         style="fill:#ffffff;fill-opacity:1;stroke:none;stroke-width:1px;stroke-linecap:butt;stroke-linejoin:miter;stroke-opacity:1"
         d="m 101.9069,251.53204 38.18148,-17.47744 9.27649,19.22518 c 0,0 0.67221,1.47886 -0.53777,1.88219 -1.20998,0.40332 -35.76153,20.97292 -35.76153,20.97292 z"
         id="path3793" /><path
         inkscape:connector-curvature="0"
         style="fill:#ffffff;fill-opacity:1;stroke:none;stroke-width:1px;stroke-linecap:butt;stroke-linejoin:miter;stroke-opacity:1"
         d="m 155.01142,81.194246 c 0,0 -4.30214,2.554395 -6.18432,4.705464 -1.88219,2.151069 -4.30214,6.58765 -5.24323,8.873161 -0.9411,2.285511 -2.15107,4.839905 -2.5544,6.990979 -0.40332,2.15106 -1.34442,4.43658 -1.34442,5.10878 0,0.67221 -0.26888,2.28552 0.9411,2.28552 1.20997,0 2.01662,-0.80666 2.82328,-1.61331 0.80665,-0.80665 3.62992,-4.70546 4.97434,-6.31876 1.34442,-1.613304 1.61331,-2.554397 4.70547,-4.571024 3.09216,-2.016627 4.16769,-2.823278 4.8399,-3.361046 0.67221,-0.537767 1.47886,-1.344418 1.47886,-1.344418 0,0 1.20998,-3.092162 0.53777,-4.705464 -0.67221,-1.613301 -1.07553,-3.764371 -1.47886,-4.705463 -0.40333,-0.941093 0.13444,-1.209977 -1.07553,-1.47886 -1.20998,-0.268884 -2.41996,0.134441 -2.41996,0.134441 z"
         id="path3795" /><path
         inkscape:connector-curvature="0"
         style="fill:#ffffff;fill-opacity:1;stroke:none;stroke-width:1px;stroke-linecap:butt;stroke-linejoin:miter;stroke-opacity:1"
         d="m 158.77579,110.09924 -24.60285,22.04846 -0.67221,21.10736 c 0,0 -0.13444,0.9411 0.94109,0.67221 1.07554,-0.26888 26.75393,-22.85511 26.75393,-22.85511 0,0 1.20997,-1.07553 0.80665,-5.64655 -0.40333,-4.57103 -1.47886,-14.92305 -1.47886,-14.92305 z"
         id="path3797" /><path
         inkscape:connector-curvature="0"
         style="fill:#ffffff;fill-opacity:1;stroke:none;stroke-width:1px;stroke-linecap:butt;stroke-linejoin:miter;stroke-opacity:1"
         d="m 133.50073,173.15245 27.9639,-24.33397 c 0,0 2.15107,-1.47886 2.41995,0.80665 0.26889,2.28552 1.07554,16.53635 1.07554,16.53635 0,0 -0.40333,2.28551 -1.6133,3.09216 -1.20998,0.80665 -24.46842,19.22518 -24.46842,19.22518 0,0 -2.41995,1.47886 -2.82327,-0.13444 -0.40333,-1.6133 -2.5544,-15.19193 -2.5544,-15.19193 z"
         id="path3799" /><path
         inkscape:connector-curvature="0"
         style="fill:#ffffff;fill-opacity:1;stroke:none;stroke-width:1px;stroke-linecap:butt;stroke-linejoin:miter;stroke-opacity:1"
         d="m 141.56724,203.67075 22.58623,-19.76295 c 0,0 3.2266,-2.28551 3.36104,4.70546 0.13444,6.99098 0.53777,11.42756 0.53777,11.42756 0,0 0,1.34442 -2.01663,2.95772 -2.01663,1.6133 -17.88076,15.86413 -17.88076,15.86413 0,0 -2.82328,2.82328 -3.62993,-0.26888 -0.80665,-3.09216 -3.09216,-11.69644 -3.09216,-11.69644 z"
         id="path3801" /><path
         inkscape:connector-curvature="0"
         style="fill:#ffffff;fill-opacity:1;stroke:none;stroke-width:1px;stroke-linecap:butt;stroke-linejoin:miter;stroke-opacity:1"
         d="m 168.85893,221.28263 1.34442,15.59525 -12.09977,10.6209 -7.12541,-13.84751 c 0,0 -0.80665,-2.15106 0.67221,-2.68883 1.47886,-0.53777 15.59525,-10.08314 15.59525,-10.08314 z"
         id="path3803" /><path
         inkscape:connector-curvature="0"
         style="fill:#ffffff;fill-opacity:1;stroke:none;stroke-width:1px;stroke-linecap:butt;stroke-linejoin:miter;stroke-opacity:1"
         d="m 172.6233,78.50541 c 0,0 9.27649,6.184324 13.71307,13.847508 4.43658,7.663182 5.10879,9.814252 5.10879,9.814252 0,0 0.26888,1.20998 -0.9411,1.20998 -1.20997,0 -2.82327,-2.5544 -4.43658,-3.22661 -1.6133,-0.672206 -7.3943,-6.049879 -9.81425,-6.990971 -2.41995,-0.941093 -5.64656,-2.15107 -5.64656,-2.15107 l -0.67221,-0.134441 -0.13444,-11.561997 c 0,0 0.53777,-0.672209 1.34442,-0.672209 0.80665,0 1.47886,-0.134442 1.47886,-0.134442 z"
         id="path3805" /><path
         inkscape:connector-curvature="0"
         style="fill:#ffffff;fill-opacity:1;stroke:none;stroke-width:1px;stroke-linecap:butt;stroke-linejoin:miter;stroke-opacity:1"
         d="m 174.10216,108.88926 16.80523,8.87316 c 0,0 1.07553,0 2.95772,0.53777 1.88219,0.53777 1.34442,-1.47886 3.2266,1.88219 1.88219,3.36104 1.07554,0.80665 2.68884,4.8399 1.6133,4.03326 3.09216,5.781 3.09216,9.14204 0,3.36105 -0.94109,4.57103 0.26889,5.51212 1.20997,0.94109 1.88218,1.47886 1.34441,2.55439 -0.53776,1.07554 -0.13444,1.61331 -1.34441,1.74775 -1.20998,0.13444 -29.44276,-15.19193 -29.44276,-15.19193 0,0 -0.80665,1.07554 -0.80665,-3.49549 0,-4.57102 -0.67221,-13.30974 -0.67221,-13.30974 0,0 -0.80665,-3.09216 -0.13445,-3.09216 0.67221,0 2.01663,0 2.01663,0 z"
         id="path3807" /><path
         inkscape:connector-curvature="0"
         style="fill:#ffffff;fill-opacity:1;stroke:none;stroke-width:1px;stroke-linecap:butt;stroke-linejoin:miter;stroke-opacity:1"
         d="m 178.13542,146.12965 26.75392,13.8475 c 0,0 2.28551,-0.53776 2.41995,1.20998 0.13444,1.74775 0.94109,19.35962 0.94109,19.35962 0,0 -0.94109,3.36105 -4.03325,1.20998 -3.09216,-2.15107 -27.15725,-18.28409 -27.15725,-18.28409 0,0 -1.88218,-1.20997 -1.74774,-3.2266 0.13444,-2.01663 -1.20998,-12.77197 -1.20998,-12.77197 0,0 -0.53777,-1.20998 0.40333,-1.74775 0.94109,-0.53777 2.95772,-0.53777 2.95772,-0.53777 z"
         id="path3809" /><path
         inkscape:connector-curvature="0"
         style="fill:#ffffff;fill-opacity:1;stroke:none;stroke-width:1px;stroke-linecap:butt;stroke-linejoin:miter;stroke-opacity:1"
         d="m 178.53874,182.02561 c 0,0 23.39288,10.75535 26.08172,13.04086 2.68883,2.28551 3.76437,1.88219 3.89881,4.97435 0.13444,3.09216 0,7.66318 -0.67221,11.29311 -0.67221,3.62993 0.26888,4.83991 -2.15107,4.70547 -2.41995,-0.13445 -4.43658,-0.40333 -7.25986,-2.15107 -2.82328,-1.74775 -19.35962,-12.50309 -19.35962,-12.50309 0,0 -2.15107,-2.01663 -1.74774,-2.68884 0.40332,-0.67221 0,-15.19193 0,-15.19193 z"
         id="path3811" /><path
         inkscape:connector-curvature="0"
         style="fill:#ffffff;fill-opacity:1;stroke:none;stroke-width:1px;stroke-linecap:butt;stroke-linejoin:miter;stroke-opacity:1"
         d="m 188.62188,223.97146 11.69644,9.14205 c 0,0 3.49548,0.13444 2.41995,5.51211 -1.07553,5.37767 -2.01663,11.02423 -2.01663,11.02423 0,0 -0.26888,3.2266 -4.70546,-0.13444 -4.43658,-3.36105 -14.38528,-11.15867 -14.38528,-11.15867 0,0 -2.68883,-1.07554 -2.41995,-3.62993 0.26888,-2.5544 -0.13444,-12.09977 -0.13444,-12.09977 0,0 -0.53777,-5.78099 3.49549,-2.82327 4.03325,2.95772 6.04988,4.16769 6.04988,4.16769 z"
         id="path3813" /><path
         inkscape:connector-curvature="0"
         style="fill:#ffffff;fill-opacity:1;stroke:none;stroke-width:1px;stroke-linecap:butt;stroke-linejoin:miter;stroke-opacity:1"
         d="m 207.17485,98.671683 24.7373,-13.040856 c 0,0 1.88218,-2.285511 3.49548,-0.537768 1.6133,1.747744 7.25986,17.746321 7.25986,17.746321 0,0 2.82328,4.97435 -0.94109,6.04988 -3.76437,1.07554 -21.37625,9.14205 -21.37625,9.14205 0,0 -2.15107,-0.40333 -3.76437,1.20997 -1.6133,1.6133 -4.97435,5.37768 -6.18433,0.9411 -1.20997,-4.43659 -4.8399,-15.32637 -5.91544,-15.59526 -1.07553,-0.26888 -1.88218,-3.89881 -1.20997,-4.16769 0.67221,-0.26889 3.89881,-1.747747 3.89881,-1.747747 z"
         id="path3815" /><path
         inkscape:connector-curvature="0"
         style="fill:#ffffff;fill-opacity:1;stroke:none;stroke-width:1px;stroke-linecap:butt;stroke-linejoin:miter;stroke-opacity:1"
         d="m 218.87129,134.56765 c 0,0 4.8399,-3.49549 9.94869,-4.57102 5.10879,-1.07554 4.97435,-1.88219 7.66319,-1.6133 2.68883,0.26888 2.28551,0.80665 3.76437,-0.13445 1.47886,-0.94109 0,-1.74774 2.28551,-2.28551 2.28551,-0.53776 3.49549,-0.80665 5.24323,-0.80665 1.74774,0 3.62993,-0.13444 4.03326,2.41996 0.40332,2.55439 2.15106,9.81425 2.41995,13.30974 0.26888,3.49548 1.07553,4.70546 0.67221,6.18432 -0.40333,1.47886 -2.82328,3.09216 -4.57102,3.09216 -1.74775,0 -8.46984,1.34442 -10.62091,1.74775 -2.15107,0.40332 -6.72209,1.6133 -8.46983,1.74774 -1.74775,0.13444 -2.68884,-0.13444 -4.83991,0.40332 -2.15107,0.53777 -2.82328,-0.13444 -3.49549,0.9411 -0.67221,1.07553 -1.20997,2.41995 -2.95772,2.28551 -1.74774,-0.13444 -2.55439,-0.40333 -2.82327,-1.47886 -0.26889,-1.07554 -0.53777,-3.49549 -0.80666,-6.85653 -0.26888,-3.36105 0,-4.03326 -0.13444,-6.18433 -0.13444,-2.15107 -0.94109,-3.62993 -1.20997,-4.03325 -0.26889,-0.40333 -0.13445,-1.88219 0.80665,-2.68884 0.94109,-0.80665 3.09216,-1.47886 3.09216,-1.47886 z"
         id="path3817" /><path
         inkscape:connector-curvature="0"
         style="fill:#ffffff;fill-opacity:1;stroke:none;stroke-width:1px;stroke-linecap:butt;stroke-linejoin:miter;stroke-opacity:1"
         d="m 222.90454,169.25364 c 0,0 6.18433,-1.88218 8.73872,-2.01663 2.5544,-0.13444 3.22661,-1.20997 5.781,-1.47886 2.5544,-0.26888 3.2266,-0.53776 5.10879,-0.26888 1.88219,0.26888 1.20998,0.40333 2.95772,0.13444 1.74774,-0.26888 4.03325,-1.88218 5.64656,-2.15107 1.6133,-0.26888 2.15107,-0.94109 4.03325,0.26889 1.88219,1.20997 2.01663,2.41995 2.15107,3.2266 0.13444,0.80665 1.20998,16.67079 1.20998,16.67079 0,0 -0.80665,4.03325 -2.68884,4.30213 -1.88219,0.26889 -25.67839,0.9411 -25.67839,0.9411 0,0 -2.01663,-1.47886 -3.49549,-0.67221 -1.47886,0.80665 -2.55439,0.80665 -3.49548,0.80665 -0.9411,0 -1.20998,-0.13444 -1.20998,-0.13444 0,0 -0.67221,0.13444 -1.20998,-0.26889 -0.53776,-0.40332 -1.88218,0.67221 -1.88218,-2.55439 0,-3.22661 0,-13.71307 0,-13.71307 0,0 -0.80665,-1.6133 1.07553,-2.15107 1.88219,-0.53776 2.95772,-0.94109 2.95772,-0.94109 z"
         id="path3819" /><path
         inkscape:connector-curvature="0"
         style="fill:#ffffff;fill-opacity:1;stroke:none;stroke-width:1px;stroke-linecap:butt;stroke-linejoin:miter;stroke-opacity:1"
         d="m 220.61903,202.05745 c 0,0 18.28409,-0.67221 20.97293,-0.40333 2.68883,0.26888 4.57102,0.26888 5.37767,0.26888 0.80665,0 0.67221,0.80665 2.15107,0.9411 1.47886,0.13444 2.01663,-0.26889 2.68884,-0.67221 0.6722,-0.40333 3.76437,-1.07554 4.8399,-0.26889 1.07554,0.80665 2.5544,0.40333 2.41995,3.49549 -0.13444,3.09216 -1.34441,7.25986 -1.88218,11.42756 -0.53777,4.16769 -2.5544,7.12541 -2.5544,8.20095 0,1.07553 0.26889,2.15107 0.26889,2.15107 0,0 -2.01663,0.40332 -3.62993,0.53776 -1.6133,0.13445 -7.52874,-1.6133 -8.46984,-1.74774 -0.94109,-0.13444 -3.2266,-0.67221 -5.91544,-1.07553 -2.68883,-0.40333 -1.20997,-0.40333 -4.8399,-0.67221 -3.62993,-0.26889 -4.83991,-0.40333 -6.85654,-0.40333 -2.01662,0 -3.36104,0.67221 -4.97434,-0.53777 -1.6133,-1.20997 -1.6133,-0.53776 -2.28551,-1.6133 -0.67221,-1.07553 -0.53777,-0.26888 -0.80665,-2.55439 -0.26889,-2.28551 -0.40333,-5.781 -0.13445,-6.72209 0.26889,-0.9411 0,-7.25986 0.40333,-7.93207 0.40332,-0.67221 0.13444,-1.88219 1.07553,-2.15107 0.9411,-0.26888 2.15107,-0.26888 2.15107,-0.26888 z"
         id="path3821" /><path
         inkscape:connector-curvature="0"
         style="fill:#ffffff;fill-opacity:1;stroke:none;stroke-width:1px;stroke-linecap:butt;stroke-linejoin:miter;stroke-opacity:1"
         d="m 216.31689,238.35674 c 0,0 20.5696,3.76437 24.60286,5.91544 4.03325,2.15107 4.43658,1.6133 6.85653,2.41995 2.41995,0.80665 4.30214,-0.26888 4.03326,3.76437 -0.26889,4.03326 -2.5544,15.7297 -2.5544,15.7297 l -1.74774,8.33539 c 0,0 -1.6133,4.30214 -5.24323,2.55439 -3.62993,-1.74774 -31.32495,-17.07411 -31.32495,-17.07411 0,0 -3.36104,0.26889 -2.82328,-2.41995 0.53777,-2.68884 1.6133,-7.52874 1.88219,-8.20095 0.26888,-0.67221 2.01663,-6.18433 2.28551,-7.12542 0.26888,-0.94109 -0.94109,-4.57102 0.53777,-4.57102 1.47886,0 3.49548,0.67221 3.49548,0.67221 z"
         id="path3823" /><path
         inkscape:connector-curvature="0"
         style="fill:#ffffff;fill-opacity:1;stroke:none;stroke-width:1px;stroke-linecap:butt;stroke-linejoin:miter;stroke-opacity:1"
         d="m 188.08411,421.19762 27.02281,15.72969 c 0,0 2.68883,1.47886 1.07553,2.95772 -1.6133,1.47886 -5.37767,6.85653 -6.85653,7.93207 -1.47886,1.07553 -18.14965,13.57862 -24.87174,14.11639 -6.72209,0.53777 -24.06508,1.20998 -30.65273,0.13444 -6.58765,-1.07553 -22.98956,-5.51211 -28.50167,-10.6209 -5.51212,-5.10879 -17.88076,-14.11639 -19.09074,-16.93967 -1.20998,-2.82328 -2.55439,-6.45321 -2.55439,-6.45321 0,0 -1.07554,-2.01663 0.40332,-2.68884 1.47886,-0.6722 2.68884,-1.20997 5.64656,-1.88218 2.95772,-0.67221 26.48504,-8.73872 26.48504,-8.73872 0,0 2.41995,-1.20998 5.37767,0 2.95772,1.20998 2.28551,1.47886 3.62993,3.49549 1.34442,2.01663 1.6133,4.03325 5.64656,5.10879 4.03325,1.07553 5.10879,2.15107 9.67981,2.28551 4.57102,0.13444 6.99097,0.53777 10.21758,-0.26889 3.2266,-0.80665 5.37767,-1.20997 7.3943,-2.95772 2.01662,-1.74774 3.49548,-3.62992 4.70546,-3.76437 1.20998,-0.13444 2.15107,-0.13444 3.49549,0.53777 1.34442,0.67221 2.41995,2.15107 2.41995,2.15107 0,0 -1.47886,-0.26888 -0.67221,-0.13444 z"
         id="path3825" /><path
         inkscape:connector-curvature="0"
         style="fill:#ffffff;fill-opacity:1;stroke:none;stroke-width:1px;stroke-linecap:butt;stroke-linejoin:miter;stroke-opacity:1"
         d="m 200.85608,338.65034 33.61046,3.76437 c 0,0 2.68884,-0.13444 2.68884,2.01663 0,2.15107 -2.28551,22.31734 -2.28551,22.31734 0,0 -0.40333,2.41995 -3.09217,1.74774 -2.68883,-0.67221 -32.93824,-5.781 -32.93824,-5.781 0,0 -2.68884,-0.26888 -2.68884,-2.28551 0,-2.01662 1.74774,-20.03183 1.74774,-20.03183 0,0 -0.26888,-2.28551 1.07554,-2.28551 1.34442,0 1.88218,0.53777 1.88218,0.53777 z"
         id="path3827" /><path
         inkscape:connector-curvature="0"
         style="fill:#ffffff;fill-opacity:1;stroke:none;stroke-width:1px;stroke-linecap:butt;stroke-linejoin:miter;stroke-opacity:1"
         d="m 199.10834,373.73965 c 0,0 26.21616,5.781 28.36723,5.91544 2.15106,0.13445 4.30213,0.26889 4.97434,0.67221 0.67221,0.40333 2.01663,-0.26888 1.74775,2.41996 -0.26889,2.68883 -1.34442,7.93206 -1.74775,9.54537 -0.40332,1.6133 -1.34442,3.09216 -2.28551,3.76437 -0.94109,0.67221 -3.76437,0.80665 -6.31876,0.26888 -2.5544,-0.53777 -17.88077,-4.97435 -21.91402,-5.91544 -4.03326,-0.94109 -8.46984,-1.34442 -8.73872,-2.68884 -0.26888,-1.34441 -0.80665,-3.36104 -0.40333,-6.31876 0.40333,-2.95772 0.26889,-5.37767 0.67221,-6.45321 0.40333,-1.07553 0.80666,-2.82328 2.41996,-2.55439 1.6133,0.26888 3.2266,1.34441 3.2266,1.34441 z"
         id="path3831" /><path
         inkscape:connector-curvature="0"
         style="fill:#ffffff;fill-opacity:1;stroke:none;stroke-width:1px;stroke-linecap:butt;stroke-linejoin:miter;stroke-opacity:1"
         d="m 193.73067,399.68693 33.47601,9.67981 c 0,0 2.41995,1.34442 1.6133,3.89881 -0.80665,2.5544 -3.2266,11.02423 -5.37767,13.04086 -2.15107,2.01662 -1.74774,3.09216 -2.95772,2.28551 -1.20998,-0.80665 -6.85653,-4.03326 -11.02423,-6.99098 -4.1677,-2.95772 -12.2342,-8.60427 -14.65416,-8.87316 -2.41995,-0.26888 -5.10879,-1.74774 -5.37767,-2.68883 -0.26888,-0.9411 -0.94109,-1.34442 -0.13444,-4.43658 0.80665,-3.09217 -0.26889,-4.57103 1.34442,-5.24323 1.6133,-0.67221 3.09216,-0.67221 3.09216,-0.67221 z"
         id="path3833" /><path
         inkscape:connector-curvature="0"
         style="fill:#ffffff;fill-opacity:1;stroke:none;stroke-width:1px;stroke-linecap:butt;stroke-linejoin:miter;stroke-opacity:1"
         d="m 100.42804,392.42707 33.7449,0.13444 c 0,0 1.20998,-1.07553 2.15107,-0.40333 0.94109,0.67221 1.20998,0.80666 1.47886,2.28552 0.26888,1.47886 0.40332,5.91544 0.40332,6.72209 0,0.80665 0.9411,2.28551 -1.47886,2.68883 -2.41995,0.40333 -36.70261,9.27649 -36.70261,9.27649 0,0 -0.806654,0.94109 -0.806654,-2.5544 0,-3.49548 -0.268884,-5.24323 -0.268884,-7.93206 0,-2.68884 -0.134442,-6.04989 0.268884,-7.12542 0.403325,-1.07553 0.537767,-2.82328 1.209974,-3.09216 z"
         id="path3835" /><path
         inkscape:connector-curvature="0"
         style="fill:#ffffff;fill-opacity:1;stroke:none;stroke-width:1px;stroke-linecap:butt;stroke-linejoin:miter;stroke-opacity:1"
         d="m 105.80572,362.84987 c 0,0 10.75534,0.13444 15.86413,0.94109 5.10879,0.80665 6.99098,1.74774 9.27649,1.88218 2.28551,0.13445 6.85653,0.53777 6.85653,0.53777 0,0 2.55439,0.26889 2.68884,2.15107 0.13444,1.88219 -0.13445,4.1677 -0.13445,6.72209 0,2.5544 -1.88218,4.83991 -1.88218,4.83991 0,0 -2.41995,1.6133 -6.85653,1.34442 -4.43658,-0.26889 -4.97435,-0.26889 -9.81426,-0.53777 -4.8399,-0.26888 -9.94869,-0.26888 -11.29311,-0.26888 -1.34442,0 -5.37767,0 -6.72209,0 -1.34442,0 -2.68884,0 -2.68884,0 0,0 -2.554393,0.53776 -1.613301,-3.62993 0.941091,-4.1677 0.806651,-6.31877 1.344421,-8.20095 0.53776,-1.88219 0.13444,-3.36105 1.20997,-4.30214 1.07554,-0.9411 3.76438,-1.47886 3.76438,-1.47886 z"
         id="path3837" /><path
         inkscape:connector-curvature="0"
         style="fill:#ffffff;fill-opacity:1;stroke:none;stroke-width:1px;stroke-linecap:butt;stroke-linejoin:miter;stroke-opacity:1"
         d="m 114.27555,325.07171 c 0,0 10.48646,2.28552 13.30974,2.28552 2.82328,0 2.01663,-1.07554 4.43658,-0.26889 2.41995,0.80665 4.03326,0.67221 5.781,1.34442 1.74774,0.67221 2.68884,1.34442 4.30214,1.34442 1.6133,0 2.55439,0.67221 2.41995,4.43658 -0.13444,3.76437 -1.07553,5.37767 -1.07553,8.87316 0,3.49549 -1.34442,10.08314 -1.34442,10.08314 l -37.37483,-1.88219 c 0,0 -1.20998,-1.88219 0.53777,-5.10879 1.74774,-3.2266 2.01663,-5.64656 2.41995,-7.93207 0.40333,-2.28551 0.94109,-3.89881 1.88219,-5.10879 0.94109,-1.20997 1.74774,-3.2266 2.01662,-4.16769 0.26889,-0.9411 0.67221,-4.03326 0.67221,-4.03326 z"
         id="path3839" /><path
         inkscape:connector-curvature="0"
         style="fill:#ffffff;fill-opacity:1;stroke:none;stroke-width:1px;stroke-linecap:butt;stroke-linejoin:miter;stroke-opacity:1"
         d="m 155.81807,343.22136 7.3943,7.52874 c 0,0 0.67221,0.40333 0.40333,3.49549 -0.26888,3.09216 -1.34442,8.20095 -1.34442,8.20095 0,0 0.94109,1.88219 -0.53777,1.74774 -1.47886,-0.13444 -4.97434,-1.34441 -5.64655,-2.28551 -0.67221,-0.94109 -3.09216,-2.28551 -3.36105,-2.82327 -0.26888,-0.53777 -1.07553,-1.88219 -1.20997,-2.41996 -0.13445,-0.53776 -1.07554,-3.89881 -0.67221,-5.91544 0.40332,-2.01662 0.40332,-4.70546 1.47886,-5.91544 1.07553,-1.20997 2.41995,-1.74774 2.41995,-1.74774 z"
         id="path3841" /><path
         inkscape:connector-curvature="0"
         style="fill:#ffffff;fill-opacity:1;stroke:none;stroke-width:1px;stroke-linecap:butt;stroke-linejoin:miter;stroke-opacity:1"
         d="m 153.12924,372.39524 5.64655,6.31876 c 0,0 0.80665,0.26889 0.80665,3.49549 0,3.2266 0.13445,5.37767 -1.07553,5.37767 -1.20998,0 -4.1677,-0.94109 -5.24323,-2.01663 -1.07554,-1.07553 -3.49549,-1.88218 -4.1677,-3.2266 -0.67221,-1.34442 -1.6133,-2.68884 -1.07553,-4.97435 0.53777,-2.28551 1.47886,-4.30213 2.28551,-4.70546 0.80665,-0.40333 2.82328,-0.26888 2.82328,-0.26888 z"
         id="path3843" /><path
         inkscape:connector-curvature="0"
         style="fill:#ffffff;fill-opacity:1;stroke:none;stroke-width:1px;stroke-linecap:butt;stroke-linejoin:miter;stroke-opacity:1"
         d="m 149.90263,397.53586 c 0,0 2.5544,1.74774 3.89882,2.95772 1.34441,1.20997 2.01662,1.34442 2.15107,4.30214 0.13444,2.95772 0.53776,5.91544 0,7.25985 -0.53777,1.34442 -0.26889,1.88219 -1.47886,1.88219 -1.20998,0 -1.74775,-0.80665 -2.28552,-1.6133 -0.53776,-0.80665 -1.47886,-1.6133 -2.01662,-2.68884 -0.53777,-1.07553 -2.01663,-2.95772 -2.28551,-4.30214 -0.26889,-1.34442 -1.07554,-3.09216 -1.07554,-3.89881 0,-0.80665 0,-1.88219 0.53777,-2.68884 0.53777,-0.80665 1.74774,-1.47886 1.74774,-1.47886 z"
         id="path3845" /><path
         inkscape:connector-curvature="0"
         style="fill:#ffffff;fill-opacity:1;stroke:none;stroke-width:1px;stroke-linecap:butt;stroke-linejoin:miter;stroke-opacity:1"
         d="m 174.90881,352.90117 c 0,0 2.15107,-1.74774 3.49549,-1.74774 1.34442,0 3.2266,-0.13444 4.03325,-1.20998 0.80666,-1.07553 3.22661,-2.28551 3.62993,-2.28551 0.40333,0 0.80665,0.13444 0.80665,1.88219 0,1.74774 -0.13444,4.03325 -0.40332,5.78099 -0.26888,1.74775 -0.40333,3.89882 -0.40333,4.97435 0,1.07554 2.28551,0.40333 -0.53776,1.88219 -2.82328,1.47886 -7.12542,3.62993 -7.12542,3.62993 l -2.41995,-0.13445 c 0,0 -1.34442,-0.6722 -1.47886,-1.74774 -0.13444,-1.07553 -0.26889,-2.41995 -0.13444,-4.03325 0.13444,-1.61331 0.53776,-3.36105 0.53776,-3.89882 0,-0.53776 0,-3.09216 0,-3.09216 z"
         id="path3847" /><path
         inkscape:connector-curvature="0"
         style="fill:#ffffff;fill-opacity:1;stroke:none;stroke-width:1px;stroke-linecap:butt;stroke-linejoin:miter;stroke-opacity:1"
         d="m 172.21998,381.2684 c 0,0 5.51211,-2.82328 7.79762,-3.22661 2.28551,-0.40332 2.68884,-0.13444 2.5544,1.88219 -0.13445,2.01663 -0.13445,3.89881 -0.13445,3.89881 0,0 0.40333,1.6133 -0.6722,2.15107 -1.07554,0.53777 -3.09217,2.01663 -4.57103,2.28551 -1.47886,0.26888 -4.30213,1.6133 -5.24323,0.80665 -0.94109,-0.80665 -0.94109,-3.09216 -0.67221,-4.03325 0.26889,-0.9411 0.9411,-3.76437 0.9411,-3.76437 z"
         id="path3849" /><path
         inkscape:connector-curvature="0"
         style="fill:#ffffff;fill-opacity:1;stroke:none;stroke-width:1px;stroke-linecap:butt;stroke-linejoin:miter;stroke-opacity:1"
         d="m 171.01,404.52683 5.64656,-4.43658 c 0,0 2.28551,-1.07553 2.55439,0.26889 0.26888,1.34441 -1.47886,4.57102 -1.47886,4.57102 0,0 -1.34442,7.25986 -2.55439,8.46983 -1.20998,1.20998 -2.82328,2.68884 -4.03326,2.95772 -1.20998,0.26889 -2.15107,0.80665 -2.15107,-1.88218 0,-2.68884 0.67221,-7.79763 0.67221,-7.79763 z"
         id="path3851" /></g></g></g><g
   id="g4682"
   transform="matrix(-0.15133497,-0.22170943,-0.2258025,0.14978195,247.95958,-135.59906)"><g
     id="g4680"
     transform="matrix(0.05963209,0.03590781,-0.03590781,0.05963209,14.619215,1015.8301)"
     style="fill:#ffffff;fill-opacity:1;stroke:none"><g
       id="g4608"
       style="fill:#ffffff;fill-opacity:1;stroke:none" /><g
       id="g4678"
       style="fill:#ffffff;fill-opacity:1;stroke:none"><path
         id="path4610"
         d="m 99.893953,66.029105 c 0,0 10.076857,-23.385922 25.857607,-33.462783 15.78074,-10.076861 23.00566,-14.830097 31.18123,-14.830097 8.17556,0 23.19579,1.711165 38.40614,12.548544 15.21036,10.837378 21.67476,16.541262 26.61813,24.716828 4.94336,8.175567 7.41505,13.309062 7.03479,14.259709 -0.38026,0.950647 -29.6602,18.062298 -29.6602,18.062298 0,0 -3.2322,1.330906 -3.99272,0.190129 -0.76051,-1.140776 -6.08414,-10.076861 -11.21763,-13.87945 -5.1335,-3.802589 -12.73868,-7.224919 -19.39321,-6.84466 -6.65453,0.380259 -12.54854,0.19013 -18.63268,6.274272 -6.08415,6.084142 -7.60518,7.795307 -7.60518,7.795307 0,0 -1.33091,2.661813 -3.04207,1.901295 C 133.73699,81.999979 100.8446,67.9304 100.8446,67.9304 Z"
         style="fill:#ffffff;fill-opacity:1;stroke:none;stroke-width:1px;stroke-linecap:butt;stroke-linejoin:miter;stroke-opacity:1"
         inkscape:connector-curvature="0" /><path
         id="path4612"
         d="m 100.96581,82.404223 27.42613,11.293113 c 0,0 3.22661,1.344418 2.82328,2.554395 -0.40333,1.209976 -1.74774,2.688836 -2.55439,6.318769 -0.80666,3.62993 -1.88219,7.52874 -1.61331,8.60427 0.26889,1.07554 -0.80665,4.30214 -3.76437,3.49549 -2.95772,-0.80665 -9.81425,-3.09216 -11.42755,-3.09216 -1.6133,0 -9.27649,-1.74775 -10.21758,-1.74775 -0.94109,0 -0.67221,-0.13444 -2.957721,-1.34442 -2.285511,-1.20997 -3.764372,-0.80664 -6.184324,-1.07553 -2.419953,-0.26888 -3.764371,0.13444 -3.898813,-0.80665 -0.134442,-0.94109 0,-3.2266 0.672209,-5.37767 0.672209,-2.151071 4.571022,-16.80523 4.571022,-16.80523 0,0 -0.134442,-2.554395 1.882185,-2.688836 2.016628,-0.134442 5.243232,0.672209 5.243232,0.672209 z"
         style="fill:#ffffff;fill-opacity:1;stroke:none;stroke-width:1px;stroke-linecap:butt;stroke-linejoin:miter;stroke-opacity:1"
         inkscape:connector-curvature="0" /><path
         id="path4614"
         d="m 93.974835,124.21563 c 0,0 18.284085,4.97435 21.376245,5.10879 3.09217,0.13444 5.51212,0.94109 5.51212,0.94109 0,0 2.28551,-0.26888 2.01663,1.20998 -0.26889,1.47886 -1.20998,12.50309 -1.07554,14.92304 0.13444,2.41995 -0.40332,4.43658 -1.88218,4.97435 -1.47886,0.53777 -4.30214,0.80665 -7.66319,0.80665 -3.36104,0 -7.66318,0 -10.21758,-0.13444 -2.554391,-0.13444 -4.571018,-1.07554 -6.990971,-1.47886 -2.419953,-0.40333 -1.882185,-0.80665 -5.780998,-1.20998 -3.898813,-0.40332 -5.243231,0.26888 -6.453208,-0.80665 -1.209976,-1.07553 -2.016627,-0.80665 -1.747743,-3.76437 0.268883,-2.95772 0,-3.89881 0.537767,-6.85653 0.537767,-2.95772 0.941093,-5.37768 1.882185,-8.46984 0.941093,-3.09216 0.403326,-3.89881 1.747744,-5.10879 1.344418,-1.20997 0.268884,-1.74774 2.688837,-1.74774 2.419952,0 3.764371,0.40332 4.705463,0.80665 0.941093,0.40332 1.344419,0.80665 1.344419,0.80665 z"
         style="fill:#ffffff;fill-opacity:1;stroke:none;stroke-width:1px;stroke-linecap:butt;stroke-linejoin:miter;stroke-opacity:1"
         inkscape:connector-curvature="0" /><path
         id="path4616"
         d="m 81.875071,164.68262 39.391449,1.47886 c 0,0 0.40333,12.50309 1.34442,16.4019 0.9411,3.89881 2.15107,5.10879 0.9411,5.781 -1.20998,0.67221 -16.26746,3.49549 -22.31735,4.1677 -6.049879,0.67221 -10.620901,0.40332 -13.309737,0.40332 -2.688837,0 -4.705464,0 -4.705464,0 z"
         style="fill:#ffffff;fill-opacity:1;stroke:none;stroke-width:1px;stroke-linecap:butt;stroke-linejoin:miter;stroke-opacity:1"
         inkscape:connector-curvature="0" /><path
         id="path4618"
         d="m 87.387185,207.97289 39.122575,-6.45321 c 0,0 0.80665,-0.13444 1.47886,0.94109 0.67221,1.07554 6.99097,18.01521 6.99097,18.01521 0,0 0.53777,1.20997 -0.26888,1.47886 -0.80665,0.26888 -38.988132,13.71306 -38.988132,13.71306 0,0 -0.268883,0.26889 -1.209976,-2.41995 -0.941093,-2.68884 -6.990975,-23.12399 -6.990975,-23.12399 z"
         style="fill:#ffffff;fill-opacity:1;stroke:none;stroke-width:1px;stroke-linecap:butt;stroke-linejoin:miter;stroke-opacity:1"
         inkscape:connector-curvature="0" /><path
         id="path4620"
         d="m 101.9069,251.53204 38.18148,-17.47744 9.27649,19.22518 c 0,0 0.67221,1.47886 -0.53777,1.88219 -1.20998,0.40332 -35.76153,20.97292 -35.76153,20.97292 z"
         style="fill:#ffffff;fill-opacity:1;stroke:none;stroke-width:1px;stroke-linecap:butt;stroke-linejoin:miter;stroke-opacity:1"
         inkscape:connector-curvature="0" /><path
         id="path4622"
         d="m 155.01142,81.194246 c 0,0 -4.30214,2.554395 -6.18432,4.705464 -1.88219,2.151069 -4.30214,6.58765 -5.24323,8.873161 -0.9411,2.285511 -2.15107,4.839905 -2.5544,6.990979 -0.40332,2.15106 -1.34442,4.43658 -1.34442,5.10878 0,0.67221 -0.26888,2.28552 0.9411,2.28552 1.20997,0 2.01662,-0.80666 2.82328,-1.61331 0.80665,-0.80665 3.62992,-4.70546 4.97434,-6.31876 1.34442,-1.613304 1.61331,-2.554397 4.70547,-4.571024 3.09216,-2.016627 4.16769,-2.823278 4.8399,-3.361046 0.67221,-0.537767 1.47886,-1.344418 1.47886,-1.344418 0,0 1.20998,-3.092162 0.53777,-4.705464 -0.67221,-1.613301 -1.07553,-3.764371 -1.47886,-4.705463 -0.40333,-0.941093 0.13444,-1.209977 -1.07553,-1.47886 -1.20998,-0.268884 -2.41996,0.134441 -2.41996,0.134441 z"
         style="fill:#ffffff;fill-opacity:1;stroke:none;stroke-width:1px;stroke-linecap:butt;stroke-linejoin:miter;stroke-opacity:1"
         inkscape:connector-curvature="0" /><path
         id="path4624"
         d="m 158.77579,110.09924 -24.60285,22.04846 -0.67221,21.10736 c 0,0 -0.13444,0.9411 0.94109,0.67221 1.07554,-0.26888 26.75393,-22.85511 26.75393,-22.85511 0,0 1.20997,-1.07553 0.80665,-5.64655 -0.40333,-4.57103 -1.47886,-14.92305 -1.47886,-14.92305 z"
         style="fill:#ffffff;fill-opacity:1;stroke:none;stroke-width:1px;stroke-linecap:butt;stroke-linejoin:miter;stroke-opacity:1"
         inkscape:connector-curvature="0" /><path
         id="path4626"
         d="m 133.50073,173.15245 27.9639,-24.33397 c 0,0 2.15107,-1.47886 2.41995,0.80665 0.26889,2.28552 1.07554,16.53635 1.07554,16.53635 0,0 -0.40333,2.28551 -1.6133,3.09216 -1.20998,0.80665 -24.46842,19.22518 -24.46842,19.22518 0,0 -2.41995,1.47886 -2.82327,-0.13444 -0.40333,-1.6133 -2.5544,-15.19193 -2.5544,-15.19193 z"
         style="fill:#ffffff;fill-opacity:1;stroke:none;stroke-width:1px;stroke-linecap:butt;stroke-linejoin:miter;stroke-opacity:1"
         inkscape:connector-curvature="0" /><path
         id="path4628"
         d="m 141.56724,203.67075 22.58623,-19.76295 c 0,0 3.2266,-2.28551 3.36104,4.70546 0.13444,6.99098 0.53777,11.42756 0.53777,11.42756 0,0 0,1.34442 -2.01663,2.95772 -2.01663,1.6133 -17.88076,15.86413 -17.88076,15.86413 0,0 -2.82328,2.82328 -3.62993,-0.26888 -0.80665,-3.09216 -3.09216,-11.69644 -3.09216,-11.69644 z"
         style="fill:#ffffff;fill-opacity:1;stroke:none;stroke-width:1px;stroke-linecap:butt;stroke-linejoin:miter;stroke-opacity:1"
         inkscape:connector-curvature="0" /><path
         id="path4630"
         d="m 168.85893,221.28263 1.34442,15.59525 -12.09977,10.6209 -7.12541,-13.84751 c 0,0 -0.80665,-2.15106 0.67221,-2.68883 1.47886,-0.53777 15.59525,-10.08314 15.59525,-10.08314 z"
         style="fill:#ffffff;fill-opacity:1;stroke:none;stroke-width:1px;stroke-linecap:butt;stroke-linejoin:miter;stroke-opacity:1"
         inkscape:connector-curvature="0" /><path
         id="path4632"
         d="m 172.6233,78.50541 c 0,0 9.27649,6.184324 13.71307,13.847508 4.43658,7.663182 5.10879,9.814252 5.10879,9.814252 0,0 0.26888,1.20998 -0.9411,1.20998 -1.20997,0 -2.82327,-2.5544 -4.43658,-3.22661 -1.6133,-0.672206 -7.3943,-6.049879 -9.81425,-6.990971 -2.41995,-0.941093 -5.64656,-2.15107 -5.64656,-2.15107 l -0.67221,-0.134441 -0.13444,-11.561997 c 0,0 0.53777,-0.672209 1.34442,-0.672209 0.80665,0 1.47886,-0.134442 1.47886,-0.134442 z"
         style="fill:#ffffff;fill-opacity:1;stroke:none;stroke-width:1px;stroke-linecap:butt;stroke-linejoin:miter;stroke-opacity:1"
         inkscape:connector-curvature="0" /><path
         id="path4634"
         d="m 174.10216,108.88926 16.80523,8.87316 c 0,0 1.07553,0 2.95772,0.53777 1.88219,0.53777 1.34442,-1.47886 3.2266,1.88219 1.88219,3.36104 1.07554,0.80665 2.68884,4.8399 1.6133,4.03326 3.09216,5.781 3.09216,9.14204 0,3.36105 -0.94109,4.57103 0.26889,5.51212 1.20997,0.94109 1.88218,1.47886 1.34441,2.55439 -0.53776,1.07554 -0.13444,1.61331 -1.34441,1.74775 -1.20998,0.13444 -29.44276,-15.19193 -29.44276,-15.19193 0,0 -0.80665,1.07554 -0.80665,-3.49549 0,-4.57102 -0.67221,-13.30974 -0.67221,-13.30974 0,0 -0.80665,-3.09216 -0.13445,-3.09216 0.67221,0 2.01663,0 2.01663,0 z"
         style="fill:#ffffff;fill-opacity:1;stroke:none;stroke-width:1px;stroke-linecap:butt;stroke-linejoin:miter;stroke-opacity:1"
         inkscape:connector-curvature="0" /><path
         id="path4636"
         d="m 178.13542,146.12965 26.75392,13.8475 c 0,0 2.28551,-0.53776 2.41995,1.20998 0.13444,1.74775 0.94109,19.35962 0.94109,19.35962 0,0 -0.94109,3.36105 -4.03325,1.20998 -3.09216,-2.15107 -27.15725,-18.28409 -27.15725,-18.28409 0,0 -1.88218,-1.20997 -1.74774,-3.2266 0.13444,-2.01663 -1.20998,-12.77197 -1.20998,-12.77197 0,0 -0.53777,-1.20998 0.40333,-1.74775 0.94109,-0.53777 2.95772,-0.53777 2.95772,-0.53777 z"
         style="fill:#ffffff;fill-opacity:1;stroke:none;stroke-width:1px;stroke-linecap:butt;stroke-linejoin:miter;stroke-opacity:1"
         inkscape:connector-curvature="0" /><path
         id="path4638"
         d="m 178.53874,182.02561 c 0,0 23.39288,10.75535 26.08172,13.04086 2.68883,2.28551 3.76437,1.88219 3.89881,4.97435 0.13444,3.09216 0,7.66318 -0.67221,11.29311 -0.67221,3.62993 0.26888,4.83991 -2.15107,4.70547 -2.41995,-0.13445 -4.43658,-0.40333 -7.25986,-2.15107 -2.82328,-1.74775 -19.35962,-12.50309 -19.35962,-12.50309 0,0 -2.15107,-2.01663 -1.74774,-2.68884 0.40332,-0.67221 0,-15.19193 0,-15.19193 z"
         style="fill:#ffffff;fill-opacity:1;stroke:none;stroke-width:1px;stroke-linecap:butt;stroke-linejoin:miter;stroke-opacity:1"
         inkscape:connector-curvature="0" /><path
         id="path4640"
         d="m 188.62188,223.97146 11.69644,9.14205 c 0,0 3.49548,0.13444 2.41995,5.51211 -1.07553,5.37767 -2.01663,11.02423 -2.01663,11.02423 0,0 -0.26888,3.2266 -4.70546,-0.13444 -4.43658,-3.36105 -14.38528,-11.15867 -14.38528,-11.15867 0,0 -2.68883,-1.07554 -2.41995,-3.62993 0.26888,-2.5544 -0.13444,-12.09977 -0.13444,-12.09977 0,0 -0.53777,-5.78099 3.49549,-2.82327 4.03325,2.95772 6.04988,4.16769 6.04988,4.16769 z"
         style="fill:#ffffff;fill-opacity:1;stroke:none;stroke-width:1px;stroke-linecap:butt;stroke-linejoin:miter;stroke-opacity:1"
         inkscape:connector-curvature="0" /><path
         id="path4642"
         d="m 207.17485,98.671683 24.7373,-13.040856 c 0,0 1.88218,-2.285511 3.49548,-0.537768 1.6133,1.747744 7.25986,17.746321 7.25986,17.746321 0,0 2.82328,4.97435 -0.94109,6.04988 -3.76437,1.07554 -21.37625,9.14205 -21.37625,9.14205 0,0 -2.15107,-0.40333 -3.76437,1.20997 -1.6133,1.6133 -4.97435,5.37768 -6.18433,0.9411 -1.20997,-4.43659 -4.8399,-15.32637 -5.91544,-15.59526 -1.07553,-0.26888 -1.88218,-3.89881 -1.20997,-4.16769 0.67221,-0.26889 3.89881,-1.747747 3.89881,-1.747747 z"
         style="fill:#ffffff;fill-opacity:1;stroke:none;stroke-width:1px;stroke-linecap:butt;stroke-linejoin:miter;stroke-opacity:1"
         inkscape:connector-curvature="0" /><path
         id="path4644"
         d="m 218.87129,134.56765 c 0,0 4.8399,-3.49549 9.94869,-4.57102 5.10879,-1.07554 4.97435,-1.88219 7.66319,-1.6133 2.68883,0.26888 2.28551,0.80665 3.76437,-0.13445 1.47886,-0.94109 0,-1.74774 2.28551,-2.28551 2.28551,-0.53776 3.49549,-0.80665 5.24323,-0.80665 1.74774,0 3.62993,-0.13444 4.03326,2.41996 0.40332,2.55439 2.15106,9.81425 2.41995,13.30974 0.26888,3.49548 1.07553,4.70546 0.67221,6.18432 -0.40333,1.47886 -2.82328,3.09216 -4.57102,3.09216 -1.74775,0 -8.46984,1.34442 -10.62091,1.74775 -2.15107,0.40332 -6.72209,1.6133 -8.46983,1.74774 -1.74775,0.13444 -2.68884,-0.13444 -4.83991,0.40332 -2.15107,0.53777 -2.82328,-0.13444 -3.49549,0.9411 -0.67221,1.07553 -1.20997,2.41995 -2.95772,2.28551 -1.74774,-0.13444 -2.55439,-0.40333 -2.82327,-1.47886 -0.26889,-1.07554 -0.53777,-3.49549 -0.80666,-6.85653 -0.26888,-3.36105 0,-4.03326 -0.13444,-6.18433 -0.13444,-2.15107 -0.94109,-3.62993 -1.20997,-4.03325 -0.26889,-0.40333 -0.13445,-1.88219 0.80665,-2.68884 0.94109,-0.80665 3.09216,-1.47886 3.09216,-1.47886 z"
         style="fill:#ffffff;fill-opacity:1;stroke:none;stroke-width:1px;stroke-linecap:butt;stroke-linejoin:miter;stroke-opacity:1"
         inkscape:connector-curvature="0" /><path
         id="path4646"
         d="m 222.90454,169.25364 c 0,0 6.18433,-1.88218 8.73872,-2.01663 2.5544,-0.13444 3.22661,-1.20997 5.781,-1.47886 2.5544,-0.26888 3.2266,-0.53776 5.10879,-0.26888 1.88219,0.26888 1.20998,0.40333 2.95772,0.13444 1.74774,-0.26888 4.03325,-1.88218 5.64656,-2.15107 1.6133,-0.26888 2.15107,-0.94109 4.03325,0.26889 1.88219,1.20997 2.01663,2.41995 2.15107,3.2266 0.13444,0.80665 1.20998,16.67079 1.20998,16.67079 0,0 -0.80665,4.03325 -2.68884,4.30213 -1.88219,0.26889 -25.67839,0.9411 -25.67839,0.9411 0,0 -2.01663,-1.47886 -3.49549,-0.67221 -1.47886,0.80665 -2.55439,0.80665 -3.49548,0.80665 -0.9411,0 -1.20998,-0.13444 -1.20998,-0.13444 0,0 -0.67221,0.13444 -1.20998,-0.26889 -0.53776,-0.40332 -1.88218,0.67221 -1.88218,-2.55439 0,-3.22661 0,-13.71307 0,-13.71307 0,0 -0.80665,-1.6133 1.07553,-2.15107 1.88219,-0.53776 2.95772,-0.94109 2.95772,-0.94109 z"
         style="fill:#ffffff;fill-opacity:1;stroke:none;stroke-width:1px;stroke-linecap:butt;stroke-linejoin:miter;stroke-opacity:1"
         inkscape:connector-curvature="0" /><path
         id="path4648"
         d="m 220.61903,202.05745 c 0,0 18.28409,-0.67221 20.97293,-0.40333 2.68883,0.26888 4.57102,0.26888 5.37767,0.26888 0.80665,0 0.67221,0.80665 2.15107,0.9411 1.47886,0.13444 2.01663,-0.26889 2.68884,-0.67221 0.6722,-0.40333 3.76437,-1.07554 4.8399,-0.26889 1.07554,0.80665 2.5544,0.40333 2.41995,3.49549 -0.13444,3.09216 -1.34441,7.25986 -1.88218,11.42756 -0.53777,4.16769 -2.5544,7.12541 -2.5544,8.20095 0,1.07553 0.26889,2.15107 0.26889,2.15107 0,0 -2.01663,0.40332 -3.62993,0.53776 -1.6133,0.13445 -7.52874,-1.6133 -8.46984,-1.74774 -0.94109,-0.13444 -3.2266,-0.67221 -5.91544,-1.07553 -2.68883,-0.40333 -1.20997,-0.40333 -4.8399,-0.67221 -3.62993,-0.26889 -4.83991,-0.40333 -6.85654,-0.40333 -2.01662,0 -3.36104,0.67221 -4.97434,-0.53777 -1.6133,-1.20997 -1.6133,-0.53776 -2.28551,-1.6133 -0.67221,-1.07553 -0.53777,-0.26888 -0.80665,-2.55439 -0.26889,-2.28551 -0.40333,-5.781 -0.13445,-6.72209 0.26889,-0.9411 0,-7.25986 0.40333,-7.93207 0.40332,-0.67221 0.13444,-1.88219 1.07553,-2.15107 0.9411,-0.26888 2.15107,-0.26888 2.15107,-0.26888 z"
         style="fill:#ffffff;fill-opacity:1;stroke:none;stroke-width:1px;stroke-linecap:butt;stroke-linejoin:miter;stroke-opacity:1"
         inkscape:connector-curvature="0" /><path
         id="path4650"
         d="m 216.31689,238.35674 c 0,0 20.5696,3.76437 24.60286,5.91544 4.03325,2.15107 4.43658,1.6133 6.85653,2.41995 2.41995,0.80665 4.30214,-0.26888 4.03326,3.76437 -0.26889,4.03326 -2.5544,15.7297 -2.5544,15.7297 l -1.74774,8.33539 c 0,0 -1.6133,4.30214 -5.24323,2.55439 -3.62993,-1.74774 -31.32495,-17.07411 -31.32495,-17.07411 0,0 -3.36104,0.26889 -2.82328,-2.41995 0.53777,-2.68884 1.6133,-7.52874 1.88219,-8.20095 0.26888,-0.67221 2.01663,-6.18433 2.28551,-7.12542 0.26888,-0.94109 -0.94109,-4.57102 0.53777,-4.57102 1.47886,0 3.49548,0.67221 3.49548,0.67221 z"
         style="fill:#ffffff;fill-opacity:1;stroke:none;stroke-width:1px;stroke-linecap:butt;stroke-linejoin:miter;stroke-opacity:1"
         inkscape:connector-curvature="0" /><path
         id="path4652"
         d="m 188.08411,421.19762 27.02281,15.72969 c 0,0 2.68883,1.47886 1.07553,2.95772 -1.6133,1.47886 -5.37767,6.85653 -6.85653,7.93207 -1.47886,1.07553 -18.14965,13.57862 -24.87174,14.11639 -6.72209,0.53777 -24.06508,1.20998 -30.65273,0.13444 -6.58765,-1.07553 -22.98956,-5.51211 -28.50167,-10.6209 -5.51212,-5.10879 -17.88076,-14.11639 -19.09074,-16.93967 -1.20998,-2.82328 -2.55439,-6.45321 -2.55439,-6.45321 0,0 -1.07554,-2.01663 0.40332,-2.68884 1.47886,-0.6722 2.68884,-1.20997 5.64656,-1.88218 2.95772,-0.67221 26.48504,-8.73872 26.48504,-8.73872 0,0 2.41995,-1.20998 5.37767,0 2.95772,1.20998 2.28551,1.47886 3.62993,3.49549 1.34442,2.01663 1.6133,4.03325 5.64656,5.10879 4.03325,1.07553 5.10879,2.15107 9.67981,2.28551 4.57102,0.13444 6.99097,0.53777 10.21758,-0.26889 3.2266,-0.80665 5.37767,-1.20997 7.3943,-2.95772 2.01662,-1.74774 3.49548,-3.62992 4.70546,-3.76437 1.20998,-0.13444 2.15107,-0.13444 3.49549,0.53777 1.34442,0.67221 2.41995,2.15107 2.41995,2.15107 0,0 -1.47886,-0.26888 -0.67221,-0.13444 z"
         style="fill:#ffffff;fill-opacity:1;stroke:none;stroke-width:1px;stroke-linecap:butt;stroke-linejoin:miter;stroke-opacity:1"
         inkscape:connector-curvature="0" /><path
         id="path4654"
         d="m 200.85608,338.65034 33.61046,3.76437 c 0,0 2.68884,-0.13444 2.68884,2.01663 0,2.15107 -2.28551,22.31734 -2.28551,22.31734 0,0 -0.40333,2.41995 -3.09217,1.74774 -2.68883,-0.67221 -32.93824,-5.781 -32.93824,-5.781 0,0 -2.68884,-0.26888 -2.68884,-2.28551 0,-2.01662 1.74774,-20.03183 1.74774,-20.03183 0,0 -0.26888,-2.28551 1.07554,-2.28551 1.34442,0 1.88218,0.53777 1.88218,0.53777 z"
         style="fill:#ffffff;fill-opacity:1;stroke:none;stroke-width:1px;stroke-linecap:butt;stroke-linejoin:miter;stroke-opacity:1"
         inkscape:connector-curvature="0" /><path
         id="path4656"
         d="m 199.10834,373.73965 c 0,0 26.21616,5.781 28.36723,5.91544 2.15106,0.13445 4.30213,0.26889 4.97434,0.67221 0.67221,0.40333 2.01663,-0.26888 1.74775,2.41996 -0.26889,2.68883 -1.34442,7.93206 -1.74775,9.54537 -0.40332,1.6133 -1.34442,3.09216 -2.28551,3.76437 -0.94109,0.67221 -3.76437,0.80665 -6.31876,0.26888 -2.5544,-0.53777 -17.88077,-4.97435 -21.91402,-5.91544 -4.03326,-0.94109 -8.46984,-1.34442 -8.73872,-2.68884 -0.26888,-1.34441 -0.80665,-3.36104 -0.40333,-6.31876 0.40333,-2.95772 0.26889,-5.37767 0.67221,-6.45321 0.40333,-1.07553 0.80666,-2.82328 2.41996,-2.55439 1.6133,0.26888 3.2266,1.34441 3.2266,1.34441 z"
         style="fill:#ffffff;fill-opacity:1;stroke:none;stroke-width:1px;stroke-linecap:butt;stroke-linejoin:miter;stroke-opacity:1"
         inkscape:connector-curvature="0" /><path
         id="path4658"
         d="m 193.73067,399.68693 33.47601,9.67981 c 0,0 2.41995,1.34442 1.6133,3.89881 -0.80665,2.5544 -3.2266,11.02423 -5.37767,13.04086 -2.15107,2.01662 -1.74774,3.09216 -2.95772,2.28551 -1.20998,-0.80665 -6.85653,-4.03326 -11.02423,-6.99098 -4.1677,-2.95772 -12.2342,-8.60427 -14.65416,-8.87316 -2.41995,-0.26888 -5.10879,-1.74774 -5.37767,-2.68883 -0.26888,-0.9411 -0.94109,-1.34442 -0.13444,-4.43658 0.80665,-3.09217 -0.26889,-4.57103 1.34442,-5.24323 1.6133,-0.67221 3.09216,-0.67221 3.09216,-0.67221 z"
         style="fill:#ffffff;fill-opacity:1;stroke:none;stroke-width:1px;stroke-linecap:butt;stroke-linejoin:miter;stroke-opacity:1"
         inkscape:connector-curvature="0" /><path
         id="path4660"
         d="m 100.42804,392.42707 33.7449,0.13444 c 0,0 1.20998,-1.07553 2.15107,-0.40333 0.94109,0.67221 1.20998,0.80666 1.47886,2.28552 0.26888,1.47886 0.40332,5.91544 0.40332,6.72209 0,0.80665 0.9411,2.28551 -1.47886,2.68883 -2.41995,0.40333 -36.70261,9.27649 -36.70261,9.27649 0,0 -0.806654,0.94109 -0.806654,-2.5544 0,-3.49548 -0.268884,-5.24323 -0.268884,-7.93206 0,-2.68884 -0.134442,-6.04989 0.268884,-7.12542 0.403325,-1.07553 0.537767,-2.82328 1.209974,-3.09216 z"
         style="fill:#ffffff;fill-opacity:1;stroke:none;stroke-width:1px;stroke-linecap:butt;stroke-linejoin:miter;stroke-opacity:1"
         inkscape:connector-curvature="0" /><path
         id="path4662"
         d="m 105.80572,362.84987 c 0,0 10.75534,0.13444 15.86413,0.94109 5.10879,0.80665 6.99098,1.74774 9.27649,1.88218 2.28551,0.13445 6.85653,0.53777 6.85653,0.53777 0,0 2.55439,0.26889 2.68884,2.15107 0.13444,1.88219 -0.13445,4.1677 -0.13445,6.72209 0,2.5544 -1.88218,4.83991 -1.88218,4.83991 0,0 -2.41995,1.6133 -6.85653,1.34442 -4.43658,-0.26889 -4.97435,-0.26889 -9.81426,-0.53777 -4.8399,-0.26888 -9.94869,-0.26888 -11.29311,-0.26888 -1.34442,0 -5.37767,0 -6.72209,0 -1.34442,0 -2.68884,0 -2.68884,0 0,0 -2.554393,0.53776 -1.613301,-3.62993 0.941091,-4.1677 0.806651,-6.31877 1.344421,-8.20095 0.53776,-1.88219 0.13444,-3.36105 1.20997,-4.30214 1.07554,-0.9411 3.76438,-1.47886 3.76438,-1.47886 z"
         style="fill:#ffffff;fill-opacity:1;stroke:none;stroke-width:1px;stroke-linecap:butt;stroke-linejoin:miter;stroke-opacity:1"
         inkscape:connector-curvature="0" /><path
         id="path4664"
         d="m 114.27555,325.07171 c 0,0 10.48646,2.28552 13.30974,2.28552 2.82328,0 2.01663,-1.07554 4.43658,-0.26889 2.41995,0.80665 4.03326,0.67221 5.781,1.34442 1.74774,0.67221 2.68884,1.34442 4.30214,1.34442 1.6133,0 2.55439,0.67221 2.41995,4.43658 -0.13444,3.76437 -1.07553,5.37767 -1.07553,8.87316 0,3.49549 -1.34442,10.08314 -1.34442,10.08314 l -37.37483,-1.88219 c 0,0 -1.20998,-1.88219 0.53777,-5.10879 1.74774,-3.2266 2.01663,-5.64656 2.41995,-7.93207 0.40333,-2.28551 0.94109,-3.89881 1.88219,-5.10879 0.94109,-1.20997 1.74774,-3.2266 2.01662,-4.16769 0.26889,-0.9411 0.67221,-4.03326 0.67221,-4.03326 z"
         style="fill:#ffffff;fill-opacity:1;stroke:none;stroke-width:1px;stroke-linecap:butt;stroke-linejoin:miter;stroke-opacity:1"
         inkscape:connector-curvature="0" /><path
         id="path4666"
         d="m 155.81807,343.22136 7.3943,7.52874 c 0,0 0.67221,0.40333 0.40333,3.49549 -0.26888,3.09216 -1.34442,8.20095 -1.34442,8.20095 0,0 0.94109,1.88219 -0.53777,1.74774 -1.47886,-0.13444 -4.97434,-1.34441 -5.64655,-2.28551 -0.67221,-0.94109 -3.09216,-2.28551 -3.36105,-2.82327 -0.26888,-0.53777 -1.07553,-1.88219 -1.20997,-2.41996 -0.13445,-0.53776 -1.07554,-3.89881 -0.67221,-5.91544 0.40332,-2.01662 0.40332,-4.70546 1.47886,-5.91544 1.07553,-1.20997 2.41995,-1.74774 2.41995,-1.74774 z"
         style="fill:#ffffff;fill-opacity:1;stroke:none;stroke-width:1px;stroke-linecap:butt;stroke-linejoin:miter;stroke-opacity:1"
         inkscape:connector-curvature="0" /><path
         id="path4668"
         d="m 153.12924,372.39524 5.64655,6.31876 c 0,0 0.80665,0.26889 0.80665,3.49549 0,3.2266 0.13445,5.37767 -1.07553,5.37767 -1.20998,0 -4.1677,-0.94109 -5.24323,-2.01663 -1.07554,-1.07553 -3.49549,-1.88218 -4.1677,-3.2266 -0.67221,-1.34442 -1.6133,-2.68884 -1.07553,-4.97435 0.53777,-2.28551 1.47886,-4.30213 2.28551,-4.70546 0.80665,-0.40333 2.82328,-0.26888 2.82328,-0.26888 z"
         style="fill:#ffffff;fill-opacity:1;stroke:none;stroke-width:1px;stroke-linecap:butt;stroke-linejoin:miter;stroke-opacity:1"
         inkscape:connector-curvature="0" /><path
         id="path4670"
         d="m 149.90263,397.53586 c 0,0 2.5544,1.74774 3.89882,2.95772 1.34441,1.20997 2.01662,1.34442 2.15107,4.30214 0.13444,2.95772 0.53776,5.91544 0,7.25985 -0.53777,1.34442 -0.26889,1.88219 -1.47886,1.88219 -1.20998,0 -1.74775,-0.80665 -2.28552,-1.6133 -0.53776,-0.80665 -1.47886,-1.6133 -2.01662,-2.68884 -0.53777,-1.07553 -2.01663,-2.95772 -2.28551,-4.30214 -0.26889,-1.34442 -1.07554,-3.09216 -1.07554,-3.89881 0,-0.80665 0,-1.88219 0.53777,-2.68884 0.53777,-0.80665 1.74774,-1.47886 1.74774,-1.47886 z"
         style="fill:#ffffff;fill-opacity:1;stroke:none;stroke-width:1px;stroke-linecap:butt;stroke-linejoin:miter;stroke-opacity:1"
         inkscape:connector-curvature="0" /><path
         id="path4672"
         d="m 174.90881,352.90117 c 0,0 2.15107,-1.74774 3.49549,-1.74774 1.34442,0 3.2266,-0.13444 4.03325,-1.20998 0.80666,-1.07553 3.22661,-2.28551 3.62993,-2.28551 0.40333,0 0.80665,0.13444 0.80665,1.88219 0,1.74774 -0.13444,4.03325 -0.40332,5.78099 -0.26888,1.74775 -0.40333,3.89882 -0.40333,4.97435 0,1.07554 2.28551,0.40333 -0.53776,1.88219 -2.82328,1.47886 -7.12542,3.62993 -7.12542,3.62993 l -2.41995,-0.13445 c 0,0 -1.34442,-0.6722 -1.47886,-1.74774 -0.13444,-1.07553 -0.26889,-2.41995 -0.13444,-4.03325 0.13444,-1.61331 0.53776,-3.36105 0.53776,-3.89882 0,-0.53776 0,-3.09216 0,-3.09216 z"
         style="fill:#ffffff;fill-opacity:1;stroke:none;stroke-width:1px;stroke-linecap:butt;stroke-linejoin:miter;stroke-opacity:1"
         inkscape:connector-curvature="0" /><path
         id="path4674"
         d="m 172.21998,381.2684 c 0,0 5.51211,-2.82328 7.79762,-3.22661 2.28551,-0.40332 2.68884,-0.13444 2.5544,1.88219 -0.13445,2.01663 -0.13445,3.89881 -0.13445,3.89881 0,0 0.40333,1.6133 -0.6722,2.15107 -1.07554,0.53777 -3.09217,2.01663 -4.57103,2.28551 -1.47886,0.26888 -4.30213,1.6133 -5.24323,0.80665 -0.94109,-0.80665 -0.94109,-3.09216 -0.67221,-4.03325 0.26889,-0.9411 0.9411,-3.76437 0.9411,-3.76437 z"
         style="fill:#ffffff;fill-opacity:1;stroke:none;stroke-width:1px;stroke-linecap:butt;stroke-linejoin:miter;stroke-opacity:1"
         inkscape:connector-curvature="0" /><path
         id="path4676"
         d="m 171.01,404.52683 5.64656,-4.43658 c 0,0 2.28551,-1.07553 2.55439,0.26889 0.26888,1.34441 -1.47886,4.57102 -1.47886,4.57102 0,0 -1.34442,7.25986 -2.55439,8.46983 -1.20998,1.20998 -2.82328,2.68884 -4.03326,2.95772 -1.20998,0.26889 -2.15107,0.80665 -2.15107,-1.88218 0,-2.68884 0.67221,-7.79763 0.67221,-7.79763 z"
         style="fill:#ffffff;fill-opacity:1;stroke:none;stroke-width:1px;stroke-linecap:butt;stroke-linejoin:miter;stroke-opacity:1"
         inkscape:connector-curvature="0" /></g></g></g><g
   id="g4834"
   transform="matrix(0.27131113,-0.01444062,0.01246525,0.26740437,2.0155176,-269.86378)"><g
     id="g4832"
     transform="matrix(0.05963209,0.03590781,-0.03590781,0.05963209,14.619215,1015.8301)"
     style="fill:#ffffff;fill-opacity:1;stroke:none"><g
       id="g4760"
       style="fill:#ffffff;fill-opacity:1;stroke:none" /><g
       id="g4830"
       style="fill:#ffffff;fill-opacity:1;stroke:none"><path
         id="path4762"
         d="m 99.893953,66.029105 c 0,0 10.076857,-23.385922 25.857607,-33.462783 15.78074,-10.076861 23.00566,-14.830097 31.18123,-14.830097 8.17556,0 23.19579,1.711165 38.40614,12.548544 15.21036,10.837378 21.67476,16.541262 26.61813,24.716828 4.94336,8.175567 7.41505,13.309062 7.03479,14.259709 -0.38026,0.950647 -29.6602,18.062298 -29.6602,18.062298 0,0 -3.2322,1.330906 -3.99272,0.190129 -0.76051,-1.140776 -6.08414,-10.076861 -11.21763,-13.87945 -5.1335,-3.802589 -12.73868,-7.224919 -19.39321,-6.84466 -6.65453,0.380259 -12.54854,0.19013 -18.63268,6.274272 -6.08415,6.084142 -7.60518,7.795307 -7.60518,7.795307 0,0 -1.33091,2.661813 -3.04207,1.901295 C 133.73699,81.999979 100.8446,67.9304 100.8446,67.9304 Z"
         style="fill:#ffffff;fill-opacity:1;stroke:none;stroke-width:1px;stroke-linecap:butt;stroke-linejoin:miter;stroke-opacity:1"
         inkscape:connector-curvature="0" /><path
         id="path4764"
         d="m 100.96581,82.404223 27.42613,11.293113 c 0,0 3.22661,1.344418 2.82328,2.554395 -0.40333,1.209976 -1.74774,2.688836 -2.55439,6.318769 -0.80666,3.62993 -1.88219,7.52874 -1.61331,8.60427 0.26889,1.07554 -0.80665,4.30214 -3.76437,3.49549 -2.95772,-0.80665 -9.81425,-3.09216 -11.42755,-3.09216 -1.6133,0 -9.27649,-1.74775 -10.21758,-1.74775 -0.94109,0 -0.67221,-0.13444 -2.957721,-1.34442 -2.285511,-1.20997 -3.764372,-0.80664 -6.184324,-1.07553 -2.419953,-0.26888 -3.764371,0.13444 -3.898813,-0.80665 -0.134442,-0.94109 0,-3.2266 0.672209,-5.37767 0.672209,-2.151071 4.571022,-16.80523 4.571022,-16.80523 0,0 -0.134442,-2.554395 1.882185,-2.688836 2.016628,-0.134442 5.243232,0.672209 5.243232,0.672209 z"
         style="fill:#ffffff;fill-opacity:1;stroke:none;stroke-width:1px;stroke-linecap:butt;stroke-linejoin:miter;stroke-opacity:1"
         inkscape:connector-curvature="0" /><path
         id="path4766"
         d="m 93.974835,124.21563 c 0,0 18.284085,4.97435 21.376245,5.10879 3.09217,0.13444 5.51212,0.94109 5.51212,0.94109 0,0 2.28551,-0.26888 2.01663,1.20998 -0.26889,1.47886 -1.20998,12.50309 -1.07554,14.92304 0.13444,2.41995 -0.40332,4.43658 -1.88218,4.97435 -1.47886,0.53777 -4.30214,0.80665 -7.66319,0.80665 -3.36104,0 -7.66318,0 -10.21758,-0.13444 -2.554391,-0.13444 -4.571018,-1.07554 -6.990971,-1.47886 -2.419953,-0.40333 -1.882185,-0.80665 -5.780998,-1.20998 -3.898813,-0.40332 -5.243231,0.26888 -6.453208,-0.80665 -1.209976,-1.07553 -2.016627,-0.80665 -1.747743,-3.76437 0.268883,-2.95772 0,-3.89881 0.537767,-6.85653 0.537767,-2.95772 0.941093,-5.37768 1.882185,-8.46984 0.941093,-3.09216 0.403326,-3.89881 1.747744,-5.10879 1.344418,-1.20997 0.268884,-1.74774 2.688837,-1.74774 2.419952,0 3.764371,0.40332 4.705463,0.80665 0.941093,0.40332 1.344419,0.80665 1.344419,0.80665 z"
         style="fill:#ffffff;fill-opacity:1;stroke:none;stroke-width:1px;stroke-linecap:butt;stroke-linejoin:miter;stroke-opacity:1"
         inkscape:connector-curvature="0" /><path
         id="path4768"
         d="m 81.875071,164.68262 39.391449,1.47886 c 0,0 0.40333,12.50309 1.34442,16.4019 0.9411,3.89881 2.15107,5.10879 0.9411,5.781 -1.20998,0.67221 -16.26746,3.49549 -22.31735,4.1677 -6.049879,0.67221 -10.620901,0.40332 -13.309737,0.40332 -2.688837,0 -4.705464,0 -4.705464,0 z"
         style="fill:#ffffff;fill-opacity:1;stroke:none;stroke-width:1px;stroke-linecap:butt;stroke-linejoin:miter;stroke-opacity:1"
         inkscape:connector-curvature="0" /><path
         id="path4770"
         d="m 87.387185,207.97289 39.122575,-6.45321 c 0,0 0.80665,-0.13444 1.47886,0.94109 0.67221,1.07554 6.99097,18.01521 6.99097,18.01521 0,0 0.53777,1.20997 -0.26888,1.47886 -0.80665,0.26888 -38.988132,13.71306 -38.988132,13.71306 0,0 -0.268883,0.26889 -1.209976,-2.41995 -0.941093,-2.68884 -6.990975,-23.12399 -6.990975,-23.12399 z"
         style="fill:#ffffff;fill-opacity:1;stroke:none;stroke-width:1px;stroke-linecap:butt;stroke-linejoin:miter;stroke-opacity:1"
         inkscape:connector-curvature="0" /><path
         id="path4772"
         d="m 101.9069,251.53204 38.18148,-17.47744 9.27649,19.22518 c 0,0 0.67221,1.47886 -0.53777,1.88219 -1.20998,0.40332 -35.76153,20.97292 -35.76153,20.97292 z"
         style="fill:#ffffff;fill-opacity:1;stroke:none;stroke-width:1px;stroke-linecap:butt;stroke-linejoin:miter;stroke-opacity:1"
         inkscape:connector-curvature="0" /><path
         id="path4774"
         d="m 155.01142,81.194246 c 0,0 -4.30214,2.554395 -6.18432,4.705464 -1.88219,2.151069 -4.30214,6.58765 -5.24323,8.873161 -0.9411,2.285511 -2.15107,4.839905 -2.5544,6.990979 -0.40332,2.15106 -1.34442,4.43658 -1.34442,5.10878 0,0.67221 -0.26888,2.28552 0.9411,2.28552 1.20997,0 2.01662,-0.80666 2.82328,-1.61331 0.80665,-0.80665 3.62992,-4.70546 4.97434,-6.31876 1.34442,-1.613304 1.61331,-2.554397 4.70547,-4.571024 3.09216,-2.016627 4.16769,-2.823278 4.8399,-3.361046 0.67221,-0.537767 1.47886,-1.344418 1.47886,-1.344418 0,0 1.20998,-3.092162 0.53777,-4.705464 -0.67221,-1.613301 -1.07553,-3.764371 -1.47886,-4.705463 -0.40333,-0.941093 0.13444,-1.209977 -1.07553,-1.47886 -1.20998,-0.268884 -2.41996,0.134441 -2.41996,0.134441 z"
         style="fill:#ffffff;fill-opacity:1;stroke:none;stroke-width:1px;stroke-linecap:butt;stroke-linejoin:miter;stroke-opacity:1"
         inkscape:connector-curvature="0" /><path
         id="path4776"
         d="m 158.77579,110.09924 -24.60285,22.04846 -0.67221,21.10736 c 0,0 -0.13444,0.9411 0.94109,0.67221 1.07554,-0.26888 26.75393,-22.85511 26.75393,-22.85511 0,0 1.20997,-1.07553 0.80665,-5.64655 -0.40333,-4.57103 -1.47886,-14.92305 -1.47886,-14.92305 z"
         style="fill:#ffffff;fill-opacity:1;stroke:none;stroke-width:1px;stroke-linecap:butt;stroke-linejoin:miter;stroke-opacity:1"
         inkscape:connector-curvature="0" /><path
         id="path4778"
         d="m 133.50073,173.15245 27.9639,-24.33397 c 0,0 2.15107,-1.47886 2.41995,0.80665 0.26889,2.28552 1.07554,16.53635 1.07554,16.53635 0,0 -0.40333,2.28551 -1.6133,3.09216 -1.20998,0.80665 -24.46842,19.22518 -24.46842,19.22518 0,0 -2.41995,1.47886 -2.82327,-0.13444 -0.40333,-1.6133 -2.5544,-15.19193 -2.5544,-15.19193 z"
         style="fill:#ffffff;fill-opacity:1;stroke:none;stroke-width:1px;stroke-linecap:butt;stroke-linejoin:miter;stroke-opacity:1"
         inkscape:connector-curvature="0" /><path
         id="path4780"
         d="m 141.56724,203.67075 22.58623,-19.76295 c 0,0 3.2266,-2.28551 3.36104,4.70546 0.13444,6.99098 0.53777,11.42756 0.53777,11.42756 0,0 0,1.34442 -2.01663,2.95772 -2.01663,1.6133 -17.88076,15.86413 -17.88076,15.86413 0,0 -2.82328,2.82328 -3.62993,-0.26888 -0.80665,-3.09216 -3.09216,-11.69644 -3.09216,-11.69644 z"
         style="fill:#ffffff;fill-opacity:1;stroke:none;stroke-width:1px;stroke-linecap:butt;stroke-linejoin:miter;stroke-opacity:1"
         inkscape:connector-curvature="0" /><path
         id="path4782"
         d="m 168.85893,221.28263 1.34442,15.59525 -12.09977,10.6209 -7.12541,-13.84751 c 0,0 -0.80665,-2.15106 0.67221,-2.68883 1.47886,-0.53777 15.59525,-10.08314 15.59525,-10.08314 z"
         style="fill:#ffffff;fill-opacity:1;stroke:none;stroke-width:1px;stroke-linecap:butt;stroke-linejoin:miter;stroke-opacity:1"
         inkscape:connector-curvature="0" /><path
         id="path4784"
         d="m 172.6233,78.50541 c 0,0 9.27649,6.184324 13.71307,13.847508 4.43658,7.663182 5.10879,9.814252 5.10879,9.814252 0,0 0.26888,1.20998 -0.9411,1.20998 -1.20997,0 -2.82327,-2.5544 -4.43658,-3.22661 -1.6133,-0.672206 -7.3943,-6.049879 -9.81425,-6.990971 -2.41995,-0.941093 -5.64656,-2.15107 -5.64656,-2.15107 l -0.67221,-0.134441 -0.13444,-11.561997 c 0,0 0.53777,-0.672209 1.34442,-0.672209 0.80665,0 1.47886,-0.134442 1.47886,-0.134442 z"
         style="fill:#ffffff;fill-opacity:1;stroke:none;stroke-width:1px;stroke-linecap:butt;stroke-linejoin:miter;stroke-opacity:1"
         inkscape:connector-curvature="0" /><path
         id="path4786"
         d="m 174.10216,108.88926 16.80523,8.87316 c 0,0 1.07553,0 2.95772,0.53777 1.88219,0.53777 1.34442,-1.47886 3.2266,1.88219 1.88219,3.36104 1.07554,0.80665 2.68884,4.8399 1.6133,4.03326 3.09216,5.781 3.09216,9.14204 0,3.36105 -0.94109,4.57103 0.26889,5.51212 1.20997,0.94109 1.88218,1.47886 1.34441,2.55439 -0.53776,1.07554 -0.13444,1.61331 -1.34441,1.74775 -1.20998,0.13444 -29.44276,-15.19193 -29.44276,-15.19193 0,0 -0.80665,1.07554 -0.80665,-3.49549 0,-4.57102 -0.67221,-13.30974 -0.67221,-13.30974 0,0 -0.80665,-3.09216 -0.13445,-3.09216 0.67221,0 2.01663,0 2.01663,0 z"
         style="fill:#ffffff;fill-opacity:1;stroke:none;stroke-width:1px;stroke-linecap:butt;stroke-linejoin:miter;stroke-opacity:1"
         inkscape:connector-curvature="0" /><path
         id="path4788"
         d="m 178.13542,146.12965 26.75392,13.8475 c 0,0 2.28551,-0.53776 2.41995,1.20998 0.13444,1.74775 0.94109,19.35962 0.94109,19.35962 0,0 -0.94109,3.36105 -4.03325,1.20998 -3.09216,-2.15107 -27.15725,-18.28409 -27.15725,-18.28409 0,0 -1.88218,-1.20997 -1.74774,-3.2266 0.13444,-2.01663 -1.20998,-12.77197 -1.20998,-12.77197 0,0 -0.53777,-1.20998 0.40333,-1.74775 0.94109,-0.53777 2.95772,-0.53777 2.95772,-0.53777 z"
         style="fill:#ffffff;fill-opacity:1;stroke:none;stroke-width:1px;stroke-linecap:butt;stroke-linejoin:miter;stroke-opacity:1"
         inkscape:connector-curvature="0" /><path
         id="path4790"
         d="m 178.53874,182.02561 c 0,0 23.39288,10.75535 26.08172,13.04086 2.68883,2.28551 3.76437,1.88219 3.89881,4.97435 0.13444,3.09216 0,7.66318 -0.67221,11.29311 -0.67221,3.62993 0.26888,4.83991 -2.15107,4.70547 -2.41995,-0.13445 -4.43658,-0.40333 -7.25986,-2.15107 -2.82328,-1.74775 -19.35962,-12.50309 -19.35962,-12.50309 0,0 -2.15107,-2.01663 -1.74774,-2.68884 0.40332,-0.67221 0,-15.19193 0,-15.19193 z"
         style="fill:#ffffff;fill-opacity:1;stroke:none;stroke-width:1px;stroke-linecap:butt;stroke-linejoin:miter;stroke-opacity:1"
         inkscape:connector-curvature="0" /><path
         id="path4792"
         d="m 188.62188,223.97146 11.69644,9.14205 c 0,0 3.49548,0.13444 2.41995,5.51211 -1.07553,5.37767 -2.01663,11.02423 -2.01663,11.02423 0,0 -0.26888,3.2266 -4.70546,-0.13444 -4.43658,-3.36105 -14.38528,-11.15867 -14.38528,-11.15867 0,0 -2.68883,-1.07554 -2.41995,-3.62993 0.26888,-2.5544 -0.13444,-12.09977 -0.13444,-12.09977 0,0 -0.53777,-5.78099 3.49549,-2.82327 4.03325,2.95772 6.04988,4.16769 6.04988,4.16769 z"
         style="fill:#ffffff;fill-opacity:1;stroke:none;stroke-width:1px;stroke-linecap:butt;stroke-linejoin:miter;stroke-opacity:1"
         inkscape:connector-curvature="0" /><path
         id="path4794"
         d="m 207.17485,98.671683 24.7373,-13.040856 c 0,0 1.88218,-2.285511 3.49548,-0.537768 1.6133,1.747744 7.25986,17.746321 7.25986,17.746321 0,0 2.82328,4.97435 -0.94109,6.04988 -3.76437,1.07554 -21.37625,9.14205 -21.37625,9.14205 0,0 -2.15107,-0.40333 -3.76437,1.20997 -1.6133,1.6133 -4.97435,5.37768 -6.18433,0.9411 -1.20997,-4.43659 -4.8399,-15.32637 -5.91544,-15.59526 -1.07553,-0.26888 -1.88218,-3.89881 -1.20997,-4.16769 0.67221,-0.26889 3.89881,-1.747747 3.89881,-1.747747 z"
         style="fill:#ffffff;fill-opacity:1;stroke:none;stroke-width:1px;stroke-linecap:butt;stroke-linejoin:miter;stroke-opacity:1"
         inkscape:connector-curvature="0" /><path
         id="path4796"
         d="m 218.87129,134.56765 c 0,0 4.8399,-3.49549 9.94869,-4.57102 5.10879,-1.07554 4.97435,-1.88219 7.66319,-1.6133 2.68883,0.26888 2.28551,0.80665 3.76437,-0.13445 1.47886,-0.94109 0,-1.74774 2.28551,-2.28551 2.28551,-0.53776 3.49549,-0.80665 5.24323,-0.80665 1.74774,0 3.62993,-0.13444 4.03326,2.41996 0.40332,2.55439 2.15106,9.81425 2.41995,13.30974 0.26888,3.49548 1.07553,4.70546 0.67221,6.18432 -0.40333,1.47886 -2.82328,3.09216 -4.57102,3.09216 -1.74775,0 -8.46984,1.34442 -10.62091,1.74775 -2.15107,0.40332 -6.72209,1.6133 -8.46983,1.74774 -1.74775,0.13444 -2.68884,-0.13444 -4.83991,0.40332 -2.15107,0.53777 -2.82328,-0.13444 -3.49549,0.9411 -0.67221,1.07553 -1.20997,2.41995 -2.95772,2.28551 -1.74774,-0.13444 -2.55439,-0.40333 -2.82327,-1.47886 -0.26889,-1.07554 -0.53777,-3.49549 -0.80666,-6.85653 -0.26888,-3.36105 0,-4.03326 -0.13444,-6.18433 -0.13444,-2.15107 -0.94109,-3.62993 -1.20997,-4.03325 -0.26889,-0.40333 -0.13445,-1.88219 0.80665,-2.68884 0.94109,-0.80665 3.09216,-1.47886 3.09216,-1.47886 z"
         style="fill:#ffffff;fill-opacity:1;stroke:none;stroke-width:1px;stroke-linecap:butt;stroke-linejoin:miter;stroke-opacity:1"
         inkscape:connector-curvature="0" /><path
         id="path4798"
         d="m 222.90454,169.25364 c 0,0 6.18433,-1.88218 8.73872,-2.01663 2.5544,-0.13444 3.22661,-1.20997 5.781,-1.47886 2.5544,-0.26888 3.2266,-0.53776 5.10879,-0.26888 1.88219,0.26888 1.20998,0.40333 2.95772,0.13444 1.74774,-0.26888 4.03325,-1.88218 5.64656,-2.15107 1.6133,-0.26888 2.15107,-0.94109 4.03325,0.26889 1.88219,1.20997 2.01663,2.41995 2.15107,3.2266 0.13444,0.80665 1.20998,16.67079 1.20998,16.67079 0,0 -0.80665,4.03325 -2.68884,4.30213 -1.88219,0.26889 -25.67839,0.9411 -25.67839,0.9411 0,0 -2.01663,-1.47886 -3.49549,-0.67221 -1.47886,0.80665 -2.55439,0.80665 -3.49548,0.80665 -0.9411,0 -1.20998,-0.13444 -1.20998,-0.13444 0,0 -0.67221,0.13444 -1.20998,-0.26889 -0.53776,-0.40332 -1.88218,0.67221 -1.88218,-2.55439 0,-3.22661 0,-13.71307 0,-13.71307 0,0 -0.80665,-1.6133 1.07553,-2.15107 1.88219,-0.53776 2.95772,-0.94109 2.95772,-0.94109 z"
         style="fill:#ffffff;fill-opacity:1;stroke:none;stroke-width:1px;stroke-linecap:butt;stroke-linejoin:miter;stroke-opacity:1"
         inkscape:connector-curvature="0" /><path
         id="path4800"
         d="m 220.61903,202.05745 c 0,0 18.28409,-0.67221 20.97293,-0.40333 2.68883,0.26888 4.57102,0.26888 5.37767,0.26888 0.80665,0 0.67221,0.80665 2.15107,0.9411 1.47886,0.13444 2.01663,-0.26889 2.68884,-0.67221 0.6722,-0.40333 3.76437,-1.07554 4.8399,-0.26889 1.07554,0.80665 2.5544,0.40333 2.41995,3.49549 -0.13444,3.09216 -1.34441,7.25986 -1.88218,11.42756 -0.53777,4.16769 -2.5544,7.12541 -2.5544,8.20095 0,1.07553 0.26889,2.15107 0.26889,2.15107 0,0 -2.01663,0.40332 -3.62993,0.53776 -1.6133,0.13445 -7.52874,-1.6133 -8.46984,-1.74774 -0.94109,-0.13444 -3.2266,-0.67221 -5.91544,-1.07553 -2.68883,-0.40333 -1.20997,-0.40333 -4.8399,-0.67221 -3.62993,-0.26889 -4.83991,-0.40333 -6.85654,-0.40333 -2.01662,0 -3.36104,0.67221 -4.97434,-0.53777 -1.6133,-1.20997 -1.6133,-0.53776 -2.28551,-1.6133 -0.67221,-1.07553 -0.53777,-0.26888 -0.80665,-2.55439 -0.26889,-2.28551 -0.40333,-5.781 -0.13445,-6.72209 0.26889,-0.9411 0,-7.25986 0.40333,-7.93207 0.40332,-0.67221 0.13444,-1.88219 1.07553,-2.15107 0.9411,-0.26888 2.15107,-0.26888 2.15107,-0.26888 z"
         style="fill:#ffffff;fill-opacity:1;stroke:none;stroke-width:1px;stroke-linecap:butt;stroke-linejoin:miter;stroke-opacity:1"
         inkscape:connector-curvature="0" /><path
         id="path4802"
         d="m 216.31689,238.35674 c 0,0 20.5696,3.76437 24.60286,5.91544 4.03325,2.15107 4.43658,1.6133 6.85653,2.41995 2.41995,0.80665 4.30214,-0.26888 4.03326,3.76437 -0.26889,4.03326 -2.5544,15.7297 -2.5544,15.7297 l -1.74774,8.33539 c 0,0 -1.6133,4.30214 -5.24323,2.55439 -3.62993,-1.74774 -31.32495,-17.07411 -31.32495,-17.07411 0,0 -3.36104,0.26889 -2.82328,-2.41995 0.53777,-2.68884 1.6133,-7.52874 1.88219,-8.20095 0.26888,-0.67221 2.01663,-6.18433 2.28551,-7.12542 0.26888,-0.94109 -0.94109,-4.57102 0.53777,-4.57102 1.47886,0 3.49548,0.67221 3.49548,0.67221 z"
         style="fill:#ffffff;fill-opacity:1;stroke:none;stroke-width:1px;stroke-linecap:butt;stroke-linejoin:miter;stroke-opacity:1"
         inkscape:connector-curvature="0" /><path
         id="path4804"
         d="m 188.08411,421.19762 27.02281,15.72969 c 0,0 2.68883,1.47886 1.07553,2.95772 -1.6133,1.47886 -5.37767,6.85653 -6.85653,7.93207 -1.47886,1.07553 -18.14965,13.57862 -24.87174,14.11639 -6.72209,0.53777 -24.06508,1.20998 -30.65273,0.13444 -6.58765,-1.07553 -22.98956,-5.51211 -28.50167,-10.6209 -5.51212,-5.10879 -17.88076,-14.11639 -19.09074,-16.93967 -1.20998,-2.82328 -2.55439,-6.45321 -2.55439,-6.45321 0,0 -1.07554,-2.01663 0.40332,-2.68884 1.47886,-0.6722 2.68884,-1.20997 5.64656,-1.88218 2.95772,-0.67221 26.48504,-8.73872 26.48504,-8.73872 0,0 2.41995,-1.20998 5.37767,0 2.95772,1.20998 2.28551,1.47886 3.62993,3.49549 1.34442,2.01663 1.6133,4.03325 5.64656,5.10879 4.03325,1.07553 5.10879,2.15107 9.67981,2.28551 4.57102,0.13444 6.99097,0.53777 10.21758,-0.26889 3.2266,-0.80665 5.37767,-1.20997 7.3943,-2.95772 2.01662,-1.74774 3.49548,-3.62992 4.70546,-3.76437 1.20998,-0.13444 2.15107,-0.13444 3.49549,0.53777 1.34442,0.67221 2.41995,2.15107 2.41995,2.15107 0,0 -1.47886,-0.26888 -0.67221,-0.13444 z"
         style="fill:#ffffff;fill-opacity:1;stroke:none;stroke-width:1px;stroke-linecap:butt;stroke-linejoin:miter;stroke-opacity:1"
         inkscape:connector-curvature="0" /><path
         id="path4806"
         d="m 200.85608,338.65034 33.61046,3.76437 c 0,0 2.68884,-0.13444 2.68884,2.01663 0,2.15107 -2.28551,22.31734 -2.28551,22.31734 0,0 -0.40333,2.41995 -3.09217,1.74774 -2.68883,-0.67221 -32.93824,-5.781 -32.93824,-5.781 0,0 -2.68884,-0.26888 -2.68884,-2.28551 0,-2.01662 1.74774,-20.03183 1.74774,-20.03183 0,0 -0.26888,-2.28551 1.07554,-2.28551 1.34442,0 1.88218,0.53777 1.88218,0.53777 z"
         style="fill:#ffffff;fill-opacity:1;stroke:none;stroke-width:1px;stroke-linecap:butt;stroke-linejoin:miter;stroke-opacity:1"
         inkscape:connector-curvature="0" /><path
         id="path4808"
         d="m 199.10834,373.73965 c 0,0 26.21616,5.781 28.36723,5.91544 2.15106,0.13445 4.30213,0.26889 4.97434,0.67221 0.67221,0.40333 2.01663,-0.26888 1.74775,2.41996 -0.26889,2.68883 -1.34442,7.93206 -1.74775,9.54537 -0.40332,1.6133 -1.34442,3.09216 -2.28551,3.76437 -0.94109,0.67221 -3.76437,0.80665 -6.31876,0.26888 -2.5544,-0.53777 -17.88077,-4.97435 -21.91402,-5.91544 -4.03326,-0.94109 -8.46984,-1.34442 -8.73872,-2.68884 -0.26888,-1.34441 -0.80665,-3.36104 -0.40333,-6.31876 0.40333,-2.95772 0.26889,-5.37767 0.67221,-6.45321 0.40333,-1.07553 0.80666,-2.82328 2.41996,-2.55439 1.6133,0.26888 3.2266,1.34441 3.2266,1.34441 z"
         style="fill:#ffffff;fill-opacity:1;stroke:none;stroke-width:1px;stroke-linecap:butt;stroke-linejoin:miter;stroke-opacity:1"
         inkscape:connector-curvature="0" /><path
         id="path4810"
         d="m 193.73067,399.68693 33.47601,9.67981 c 0,0 2.41995,1.34442 1.6133,3.89881 -0.80665,2.5544 -3.2266,11.02423 -5.37767,13.04086 -2.15107,2.01662 -1.74774,3.09216 -2.95772,2.28551 -1.20998,-0.80665 -6.85653,-4.03326 -11.02423,-6.99098 -4.1677,-2.95772 -12.2342,-8.60427 -14.65416,-8.87316 -2.41995,-0.26888 -5.10879,-1.74774 -5.37767,-2.68883 -0.26888,-0.9411 -0.94109,-1.34442 -0.13444,-4.43658 0.80665,-3.09217 -0.26889,-4.57103 1.34442,-5.24323 1.6133,-0.67221 3.09216,-0.67221 3.09216,-0.67221 z"
         style="fill:#ffffff;fill-opacity:1;stroke:none;stroke-width:1px;stroke-linecap:butt;stroke-linejoin:miter;stroke-opacity:1"
         inkscape:connector-curvature="0" /><path
         id="path4812"
         d="m 100.42804,392.42707 33.7449,0.13444 c 0,0 1.20998,-1.07553 2.15107,-0.40333 0.94109,0.67221 1.20998,0.80666 1.47886,2.28552 0.26888,1.47886 0.40332,5.91544 0.40332,6.72209 0,0.80665 0.9411,2.28551 -1.47886,2.68883 -2.41995,0.40333 -36.70261,9.27649 -36.70261,9.27649 0,0 -0.806654,0.94109 -0.806654,-2.5544 0,-3.49548 -0.268884,-5.24323 -0.268884,-7.93206 0,-2.68884 -0.134442,-6.04989 0.268884,-7.12542 0.403325,-1.07553 0.537767,-2.82328 1.209974,-3.09216 z"
         style="fill:#ffffff;fill-opacity:1;stroke:none;stroke-width:1px;stroke-linecap:butt;stroke-linejoin:miter;stroke-opacity:1"
         inkscape:connector-curvature="0" /><path
         id="path4814"
         d="m 105.80572,362.84987 c 0,0 10.75534,0.13444 15.86413,0.94109 5.10879,0.80665 6.99098,1.74774 9.27649,1.88218 2.28551,0.13445 6.85653,0.53777 6.85653,0.53777 0,0 2.55439,0.26889 2.68884,2.15107 0.13444,1.88219 -0.13445,4.1677 -0.13445,6.72209 0,2.5544 -1.88218,4.83991 -1.88218,4.83991 0,0 -2.41995,1.6133 -6.85653,1.34442 -4.43658,-0.26889 -4.97435,-0.26889 -9.81426,-0.53777 -4.8399,-0.26888 -9.94869,-0.26888 -11.29311,-0.26888 -1.34442,0 -5.37767,0 -6.72209,0 -1.34442,0 -2.68884,0 -2.68884,0 0,0 -2.554393,0.53776 -1.613301,-3.62993 0.941091,-4.1677 0.806651,-6.31877 1.344421,-8.20095 0.53776,-1.88219 0.13444,-3.36105 1.20997,-4.30214 1.07554,-0.9411 3.76438,-1.47886 3.76438,-1.47886 z"
         style="fill:#ffffff;fill-opacity:1;stroke:none;stroke-width:1px;stroke-linecap:butt;stroke-linejoin:miter;stroke-opacity:1"
         inkscape:connector-curvature="0" /><path
         id="path4816"
         d="m 114.27555,325.07171 c 0,0 10.48646,2.28552 13.30974,2.28552 2.82328,0 2.01663,-1.07554 4.43658,-0.26889 2.41995,0.80665 4.03326,0.67221 5.781,1.34442 1.74774,0.67221 2.68884,1.34442 4.30214,1.34442 1.6133,0 2.55439,0.67221 2.41995,4.43658 -0.13444,3.76437 -1.07553,5.37767 -1.07553,8.87316 0,3.49549 -1.34442,10.08314 -1.34442,10.08314 l -37.37483,-1.88219 c 0,0 -1.20998,-1.88219 0.53777,-5.10879 1.74774,-3.2266 2.01663,-5.64656 2.41995,-7.93207 0.40333,-2.28551 0.94109,-3.89881 1.88219,-5.10879 0.94109,-1.20997 1.74774,-3.2266 2.01662,-4.16769 0.26889,-0.9411 0.67221,-4.03326 0.67221,-4.03326 z"
         style="fill:#ffffff;fill-opacity:1;stroke:none;stroke-width:1px;stroke-linecap:butt;stroke-linejoin:miter;stroke-opacity:1"
         inkscape:connector-curvature="0" /><path
         id="path4818"
         d="m 155.81807,343.22136 7.3943,7.52874 c 0,0 0.67221,0.40333 0.40333,3.49549 -0.26888,3.09216 -1.34442,8.20095 -1.34442,8.20095 0,0 0.94109,1.88219 -0.53777,1.74774 -1.47886,-0.13444 -4.97434,-1.34441 -5.64655,-2.28551 -0.67221,-0.94109 -3.09216,-2.28551 -3.36105,-2.82327 -0.26888,-0.53777 -1.07553,-1.88219 -1.20997,-2.41996 -0.13445,-0.53776 -1.07554,-3.89881 -0.67221,-5.91544 0.40332,-2.01662 0.40332,-4.70546 1.47886,-5.91544 1.07553,-1.20997 2.41995,-1.74774 2.41995,-1.74774 z"
         style="fill:#ffffff;fill-opacity:1;stroke:none;stroke-width:1px;stroke-linecap:butt;stroke-linejoin:miter;stroke-opacity:1"
         inkscape:connector-curvature="0" /><path
         id="path4820"
         d="m 153.12924,372.39524 5.64655,6.31876 c 0,0 0.80665,0.26889 0.80665,3.49549 0,3.2266 0.13445,5.37767 -1.07553,5.37767 -1.20998,0 -4.1677,-0.94109 -5.24323,-2.01663 -1.07554,-1.07553 -3.49549,-1.88218 -4.1677,-3.2266 -0.67221,-1.34442 -1.6133,-2.68884 -1.07553,-4.97435 0.53777,-2.28551 1.47886,-4.30213 2.28551,-4.70546 0.80665,-0.40333 2.82328,-0.26888 2.82328,-0.26888 z"
         style="fill:#ffffff;fill-opacity:1;stroke:none;stroke-width:1px;stroke-linecap:butt;stroke-linejoin:miter;stroke-opacity:1"
         inkscape:connector-curvature="0" /><path
         id="path4822"
         d="m 149.90263,397.53586 c 0,0 2.5544,1.74774 3.89882,2.95772 1.34441,1.20997 2.01662,1.34442 2.15107,4.30214 0.13444,2.95772 0.53776,5.91544 0,7.25985 -0.53777,1.34442 -0.26889,1.88219 -1.47886,1.88219 -1.20998,0 -1.74775,-0.80665 -2.28552,-1.6133 -0.53776,-0.80665 -1.47886,-1.6133 -2.01662,-2.68884 -0.53777,-1.07553 -2.01663,-2.95772 -2.28551,-4.30214 -0.26889,-1.34442 -1.07554,-3.09216 -1.07554,-3.89881 0,-0.80665 0,-1.88219 0.53777,-2.68884 0.53777,-0.80665 1.74774,-1.47886 1.74774,-1.47886 z"
         style="fill:#ffffff;fill-opacity:1;stroke:none;stroke-width:1px;stroke-linecap:butt;stroke-linejoin:miter;stroke-opacity:1"
         inkscape:connector-curvature="0" /><path
         id="path4824"
         d="m 174.90881,352.90117 c 0,0 2.15107,-1.74774 3.49549,-1.74774 1.34442,0 3.2266,-0.13444 4.03325,-1.20998 0.80666,-1.07553 3.22661,-2.28551 3.62993,-2.28551 0.40333,0 0.80665,0.13444 0.80665,1.88219 0,1.74774 -0.13444,4.03325 -0.40332,5.78099 -0.26888,1.74775 -0.40333,3.89882 -0.40333,4.97435 0,1.07554 2.28551,0.40333 -0.53776,1.88219 -2.82328,1.47886 -7.12542,3.62993 -7.12542,3.62993 l -2.41995,-0.13445 c 0,0 -1.34442,-0.6722 -1.47886,-1.74774 -0.13444,-1.07553 -0.26889,-2.41995 -0.13444,-4.03325 0.13444,-1.61331 0.53776,-3.36105 0.53776,-3.89882 0,-0.53776 0,-3.09216 0,-3.09216 z"
         style="fill:#ffffff;fill-opacity:1;stroke:none;stroke-width:1px;stroke-linecap:butt;stroke-linejoin:miter;stroke-opacity:1"
         inkscape:connector-curvature="0" /><path
         id="path4826"
         d="m 172.21998,381.2684 c 0,0 5.51211,-2.82328 7.79762,-3.22661 2.28551,-0.40332 2.68884,-0.13444 2.5544,1.88219 -0.13445,2.01663 -0.13445,3.89881 -0.13445,3.89881 0,0 0.40333,1.6133 -0.6722,2.15107 -1.07554,0.53777 -3.09217,2.01663 -4.57103,2.28551 -1.47886,0.26888 -4.30213,1.6133 -5.24323,0.80665 -0.94109,-0.80665 -0.94109,-3.09216 -0.67221,-4.03325 0.26889,-0.9411 0.9411,-3.76437 0.9411,-3.76437 z"
         style="fill:#ffffff;fill-opacity:1;stroke:none;stroke-width:1px;stroke-linecap:butt;stroke-linejoin:miter;stroke-opacity:1"
         inkscape:connector-curvature="0" /><path
         id="path4828"
         d="m 171.01,404.52683 5.64656,-4.43658 c 0,0 2.28551,-1.07553 2.55439,0.26889 0.26888,1.34441 -1.47886,4.57102 -1.47886,4.57102 0,0 -1.34442,7.25986 -2.55439,8.46983 -1.20998,1.20998 -2.82328,2.68884 -4.03326,2.95772 -1.20998,0.26889 -2.15107,0.80665 -2.15107,-1.88218 0,-2.68884 0.67221,-7.79763 0.67221,-7.79763 z"
         style="fill:#ffffff;fill-opacity:1;stroke:none;stroke-width:1px;stroke-linecap:butt;stroke-linejoin:miter;stroke-opacity:1"
         inkscape:connector-curvature="0" /></g></g></g></svg>